<svg width="91" height="91" viewBox="0 0 91 91" fill="none" xmlns="http://www.w3.org/2000/svg">
<rect width="91" height="91" rx="45.5" fill="white"/>
<path d="M41.7387 31.5L27.5 45.8454L28.2737 46.624L42.5123 32.2787L41.7387 31.5ZM43.7726 33.5476L29.534 47.893L30.3076 48.6725L44.5463 34.3271L43.7719 33.5476H43.7726ZM31.5688 49.943L45.8074 35.5977L46.4191 36.2139L50.5209 32.0806L51.2945 32.8601L37.0559 47.2054L36.4442 46.5884L32.3416 50.7225L31.568 49.943H31.5688ZM47.8422 37.6469L33.6035 51.9922L34.378 52.7709L38.4789 48.6392L39.0891 49.2539L53.3277 34.9085L52.5541 34.1291L48.4531 38.2616L47.8422 37.6469ZM35.6383 54.0407L49.877 39.6953L50.4879 40.3124L54.5904 36.1791L55.3641 36.9585L41.1254 51.3039L40.5137 50.6876L36.4119 54.8201L35.6383 54.0407ZM51.9102 41.7453L37.6715 56.0907L38.4451 56.8694L42.5477 52.7368L43.1594 53.3539L57.3981 39.0085L56.6244 38.2291L52.5226 42.3616L51.9102 41.7453ZM39.7047 58.1391L53.9433 43.7938L54.555 44.41L58.6568 40.2775L59.4305 41.057L45.1918 55.4023L44.5801 54.7853L40.4783 58.9186L39.7047 58.1391ZM46.4537 56.6721L60.6924 42.3268L61.466 43.1062L47.2274 57.4516L46.4537 56.6721ZM62.7263 44.376L48.4877 58.7213L49.2613 59.5L63.5 45.1546L62.7263 44.376Z" fill="black"/>
</svg>
