<svg width="48" height="49" viewBox="0 0 48 49" fill="none" xmlns="http://www.w3.org/2000/svg">
<path d="M15 23.0651C15 22.4907 15 22.2035 15.074 21.9391C15.1396 21.7048 15.2474 21.4844 15.392 21.2889C15.5553 21.0681 15.782 20.8917 16.2354 20.5391L23.0177 15.264C23.369 14.9907 23.5447 14.8541 23.7387 14.8016C23.9098 14.7553 24.0902 14.7553 24.2613 14.8016C24.4553 14.8541 24.631 14.9907 24.9823 15.264L31.7646 20.5391C32.218 20.8917 32.4447 21.0681 32.608 21.2889C32.7526 21.4844 32.8604 21.7048 32.926 21.9391C33 22.2035 33 22.4907 33 23.0651V30.3C33 31.4201 33 31.9801 32.782 32.408C32.5903 32.7843 32.2843 33.0903 31.908 33.282C31.4802 33.5 30.9201 33.5 29.8 33.5H18.2C17.0799 33.5 16.5198 33.5 16.092 33.282C15.7157 33.0903 15.4097 32.7843 15.218 32.408C15 31.9801 15 31.4201 15 30.3V23.0651Z" stroke="white" stroke-width="2" stroke-linecap="round" stroke-linejoin="round"/>
</svg>
