<svg width="1722" height="827" viewBox="0 0 1722 827" fill="none" xmlns="http://www.w3.org/2000/svg">
<path d="M905.166 165.165C901.989 153.376 891.776 141.585 873.392 128.461C858.638 118.006 842.977 112 830.494 112C827.997 112 825.726 112.222 823.457 112.667C817.783 113.779 812.789 117.784 809.613 123.789C805.754 130.908 804.845 140.473 807.342 146.257C808.249 148.037 809.385 150.262 810.746 152.263C798.717 159.381 791.908 161.383 791 161.606C822.322 171.838 848.424 193.195 864.766 221L864.994 218.332C865.674 210.991 867.944 202.537 871.121 193.861C874.299 194.752 877.476 195.197 880.655 195.197C889.052 195.197 896.315 191.859 900.854 185.854C905.394 179.847 907.209 171.838 905.166 165.165Z" fill="#5E12A0"/>
<path d="M873.057 187.405C893.801 192.933 902.236 177.455 899.499 167.061C896.536 156.668 886.962 146.054 870.092 134.113C853.224 122.172 836.128 117.307 825.185 119.518C814.244 121.73 811.052 137.872 813.786 144.064C814.927 146.496 817.434 150.034 820.854 154.015C816.523 156.889 812.419 159.1 809 161.09C829.972 170.157 848.209 184.31 861.886 202C863.482 196.029 865.761 190.722 867.814 186.078C869.409 186.3 871.233 186.742 873.057 187.405Z" fill="url(#paint0_radial_414_196)"/>
<path d="M737.501 405C807.363 405 864 349.483 864 281C864 212.516 807.363 157 737.501 157C667.635 157 611 212.516 611 281C611 349.483 667.635 405 737.501 405Z" fill="url(#paint1_radial_414_196)"/>
<path opacity="0.6" d="M889.1 157.01C871.731 139.26 857.105 134.601 839.509 130.83C825.797 127.724 829.454 120.179 846.136 121.732C838.139 119.07 830.597 118.404 825.111 119.513C814.142 121.732 810.943 137.929 813.686 144.142C814.827 146.582 817.341 150.133 820.77 154.126C814.6 158.119 809.344 161.004 805 163.223C807.058 164.11 809.571 165.22 812.542 166.773C820.312 170.766 828.768 177.422 828.768 177.422C815.97 166.773 818.712 161.891 836.31 149.91C841.794 146.138 851.849 146.582 861.22 151.242C870.59 155.901 881.558 167.66 881.558 167.66L871.047 187.185C871.731 187.407 872.417 187.629 873.102 187.85C879.73 189.626 884.986 189.182 889.1 187.629C893.899 184.744 906.468 174.982 889.1 157.01Z" fill="#A98698"/>
<path d="M838.641 141.068C843.177 142.846 849.072 145.959 856.329 150.63C864.945 156.189 872.429 162.415 877.191 167.307C869.253 177.536 864.038 191.544 860.865 201.329C862.452 203.552 864.265 205.776 865.853 208C867.44 202.441 870.161 194.213 873.789 185.986C874.696 186.209 875.831 186.209 876.963 186.209C879.685 186.209 882.859 185.763 885.354 183.762C887.167 182.428 889.209 179.981 888.983 175.534C888.983 171.309 885.582 165.972 878.551 159.525C873.563 154.855 866.76 149.74 859.957 145.07C840.455 132.395 826.849 128.837 820.727 134.842C816.645 138.844 817.098 143.736 818.46 147.294C811.204 151.964 805.08 155.3 801 157.522C803.72 158.413 806.215 159.525 808.935 160.635C816.191 156.856 826.623 150.407 838.641 141.068ZM881.499 172.866C882.18 173.978 882.406 175.09 882.406 175.757C882.406 177.758 881.727 178.425 881.271 178.87C880.365 179.537 878.551 179.981 876.963 179.981C878.324 177.314 879.911 175.09 881.499 172.866ZM825.489 139.733C826.17 139.067 827.984 138.621 830.932 139.067C828.665 140.845 826.396 142.402 824.129 143.958C823.901 142.402 824.129 140.845 825.489 139.733Z" fill="#5E12A0"/>
<path d="M737.5 149C663.759 149 604 207.864 604 280.501C604 353.135 663.759 412 737.5 412C811.242 412 871 353.135 871 280.501C871 207.864 811.015 149 737.5 149ZM737.5 404.67C667.818 404.67 611.441 349.139 611.441 280.501C611.441 211.863 667.818 156.33 737.5 156.33C807.182 156.33 863.56 211.863 863.56 280.501C863.56 349.139 806.958 404.67 737.5 404.67Z" fill="#5E12A0"/>
<path opacity="0.6" d="M737.501 405C807.363 405 864 349.483 864 281C864 212.516 807.363 157 737.501 157C667.635 157 611 212.516 611 281C611 349.483 667.635 405 737.501 405Z" fill="url(#paint2_linear_414_196)"/>
<path opacity="0.6" d="M737.152 389.772C667.848 378.866 620.811 314.992 632.173 247.112C637.172 217.066 652.624 191.472 674.438 173C642.626 191.027 618.994 222.407 612.631 260.688C601.498 328.568 648.533 392.443 717.611 403.348C756.24 409.58 793.504 397.785 821 374.638C796.686 388.436 767.147 394.446 737.152 389.772Z" fill="#A98698"/>
<path opacity="0.6" d="M757.581 158.63C725.551 153.541 694.429 160.622 668.987 176.329C668.533 176.772 668.08 177.214 668.08 177.214C677.848 171.462 692.158 166.374 692.158 166.374C655.359 187.17 644 210.842 644 210.842C658.312 183.851 700.335 164.825 733.274 163.497C766.212 162.17 787.792 171.683 814.143 192.258C840.494 213.054 856.395 255.531 854.805 289.16C853.442 322.789 835.269 350 835.269 350C847.763 334.291 855.258 322.789 860.029 311.061C860.939 307.522 861.848 303.982 862.301 300.221C873.66 232.966 826.863 169.471 757.581 158.63Z" fill="url(#paint3_linear_414_196)"/>
<path d="M858 279C858 344.111 804.041 397 737.614 397C671.185 397 617 344.111 617 279H858Z" fill="url(#paint4_linear_414_196)"/>
<g opacity="0.6">
<path opacity="0.6" d="M848.376 279.498C848.376 342.964 797.281 394.891 733.072 397.331C734.655 397.331 736.238 397.331 737.82 397.331C804.063 397.331 857.872 344.517 857.872 279.498H848.376Z" fill="url(#paint5_linear_414_196)"/>
</g>
<g opacity="0.7">
<path opacity="0.7" d="M634.5 279.498H617.543C617.543 344.517 671.351 397.331 737.595 397.331C740.534 397.331 743.246 397.331 745.959 397.109C683.786 392.671 634.5 341.633 634.5 279.498Z" fill="url(#paint6_linear_414_196)"/>
</g>
<path d="M858 280.714C858 267.081 833.945 259.258 801.947 256.578C778.8 254.79 755.428 257.024 728.65 265.07C705.502 271.775 684.625 270.656 669.421 268.868C635.608 265.07 617 264.622 617 280.714C617 303.957 665.109 333.01 737.273 322.952C773.809 317.813 792.644 307.309 814.202 300.157C837.576 292.559 858 292.782 858 280.714Z" fill="url(#paint7_linear_414_196)"/>
<path d="M794.001 225C805.6 225 815 216.046 815 204.999C815 193.954 805.6 185 794.001 185C782.403 185 773 193.954 773 204.999C773 216.046 782.403 225 794.001 225Z" fill="white"/>
<path d="M812.999 240C817.418 240 821 236.195 821 231.5C821 226.806 817.418 223 812.999 223C808.582 223 805 226.806 805 231.5C805 236.195 808.582 240 812.999 240Z" fill="white"/>
<g opacity="0.6">
<path opacity="0.6" d="M859.824 188.753C859.606 188.753 859.389 188.753 859.389 188.753C858.079 188.532 857.207 187.2 857.424 185.646C859.389 175.439 867.679 165.674 868.115 165.231C868.987 164.121 870.732 164.121 871.605 165.009C872.696 165.897 872.696 167.671 871.823 168.56C871.605 168.781 863.969 177.88 862.225 186.756C862.007 188.087 860.916 188.753 859.824 188.753Z" fill="url(#paint8_linear_414_196)"/>
</g>
<path opacity="0.2" d="M746.499 373C750.09 373 753 370.313 753 367C753 363.687 750.09 361 746.499 361C742.91 361 740 363.687 740 367C740 370.313 742.91 373 746.499 373Z" fill="white"/>
<g opacity="0.4">
<path opacity="0.6" d="M742.84 370.99C740.354 368.548 740.354 364.555 742.84 362.114C743.293 361.67 743.745 361.449 744.198 361.004C743.293 361.226 742.615 361.67 741.936 362.335C739.45 364.777 739.45 368.772 741.936 371.211C743.971 373.209 747.137 373.653 749.623 372.322C747.363 373.209 744.649 372.766 742.84 370.99Z" fill="url(#paint9_linear_414_196)"/>
</g>
<path opacity="0.3" d="M749 365C750.106 365 751 364.329 751 363.501C751 362.672 750.106 362 749 362C747.894 362 747 362.672 747 363.501C747 364.329 747.894 365 749 365Z" fill="white"/>
<path opacity="0.2" d="M779.498 370C783.09 370 786 367.313 786 363.999C786 360.686 783.09 358 779.498 358C775.909 358 773 360.686 773 363.999C773 367.313 775.909 370 779.498 370Z" fill="white"/>
<g opacity="0.4">
<path opacity="0.6" d="M775.85 367.865C773.363 365.423 773.363 361.43 775.85 358.988C776.302 358.545 776.755 358.322 777.206 357.879C776.302 358.1 775.624 358.545 774.946 359.211C772.459 361.651 772.459 365.646 774.946 368.086C776.982 370.085 780.145 370.527 782.633 369.196C780.372 370.085 777.66 369.64 775.85 367.865Z" fill="url(#paint10_linear_414_196)"/>
</g>
<path opacity="0.3" d="M782 362C782.553 362 783 361.328 783 360.499C783 359.671 782.553 359 782 359C781.448 359 781 359.671 781 360.499C781 361.328 781.448 362 782 362Z" fill="white"/>
<path opacity="0.2" d="M763.5 384C765.984 384 768 381.986 768 379.501C768 377.014 765.984 375 763.5 375C761.014 375 759 377.014 759 379.501C759 381.986 761.014 384 763.5 384Z" fill="white"/>
<g opacity="0.4">
<path opacity="0.6" d="M760.473 382.739C758.664 380.964 758.664 377.858 760.473 376.082C760.699 375.86 761.15 375.639 761.377 375.416C760.699 375.639 760.247 376.082 759.794 376.526C757.985 378.3 757.985 381.408 759.794 383.184C761.377 384.736 763.638 384.957 765.674 383.849C763.864 384.515 761.829 384.071 760.473 382.739Z" fill="url(#paint11_linear_414_196)"/>
</g>
<path opacity="0.3" d="M765.001 378C765.553 378 766 377.552 766 377.001C766 376.448 765.553 376 765.001 376C764.448 376 764 376.448 764 377.001C764 377.552 764.448 378 765.001 378Z" fill="white"/>
<path opacity="0.2" d="M792.499 381C794.984 381 797 378.986 797 376.501C797 374.014 794.984 372 792.499 372C790.016 372 788 374.014 788 376.501C788 378.986 790.016 381 792.499 381Z" fill="white"/>
<g opacity="0.4">
<path opacity="0.6" d="M789.638 379.405C787.83 377.629 787.83 374.523 789.638 372.748C789.865 372.526 790.316 372.304 790.542 372.082C789.865 372.304 789.411 372.748 788.959 373.191C787.15 374.966 787.15 378.074 788.959 379.849C790.542 381.403 792.804 381.624 794.837 380.515C793.03 381.18 790.994 380.737 789.638 379.405Z" fill="url(#paint12_linear_414_196)"/>
</g>
<path opacity="0.3" d="M794 375C794.553 375 795 374.552 795 373.998C795 373.447 794.553 373 794 373C793.449 373 793 373.447 793 373.998C793 374.552 793.449 375 794 375Z" fill="white"/>
<path opacity="0.2" d="M719.501 371C725.299 371 730 366.522 730 360.999C730 355.477 725.299 351 719.501 351C713.701 351 709 355.477 709 360.999C709 366.522 713.701 371 719.501 371Z" fill="white"/>
<g opacity="0.4">
<path opacity="0.6" d="M713.68 367.16C709.611 363.165 709.611 356.729 713.68 352.736C714.359 352.07 715.037 351.625 715.942 351.182C714.584 351.625 713.454 352.513 712.324 353.402C708.255 357.395 708.255 363.831 712.324 367.826C715.715 371.154 720.915 371.82 724.985 369.378C721.141 370.931 716.619 370.265 713.68 367.16Z" fill="url(#paint13_linear_414_196)"/>
</g>
<path opacity="0.3" d="M723.001 358C724.656 358 726 356.881 726 355.499C726 354.119 724.656 353 723.001 353C721.344 353 720 354.119 720 355.499C720 356.881 721.344 358 723.001 358Z" fill="white"/>
<path opacity="0.2" d="M812.501 346C818.3 346 823 341.299 823 335.501C823 329.702 818.3 325 812.501 325C806.702 325 802 329.702 802 335.501C802 341.299 806.702 346 812.501 346Z" fill="white"/>
<g opacity="0.4">
<path opacity="0.6" d="M806.371 342.089C802.3 338.094 802.3 331.659 806.371 327.665C807.049 326.999 807.727 326.554 808.631 326.111C807.274 326.554 806.144 327.442 805.015 328.33C800.944 332.325 800.944 338.76 805.015 342.754C808.406 346.083 813.605 346.749 817.676 344.307C813.832 345.861 809.535 345.195 806.371 342.089Z" fill="url(#paint14_linear_414_196)"/>
</g>
<path opacity="0.3" d="M819.001 333C820.105 333 821 331.88 821 330.499C821 329.118 820.105 328 819.001 328C817.896 328 817 329.118 817 330.499C817 331.88 817.896 333 819.001 333Z" fill="white"/>
<path d="M961 422C1038.87 422 1102 358.872 1102 281C1102 203.128 1038.87 140 961 140C883.128 140 820 203.128 820 281C820 358.872 883.128 422 961 422Z" fill="black" stroke="url(#paint15_linear_414_196)" stroke-width="17"/>
<mask id="mask0_414_196" style="mask-type:alpha" maskUnits="userSpaceOnUse" x="812" y="132" width="298" height="298">
<path d="M961 132L976.575 132.816L991.976 135.256L1007.04 139.293L1021.61 144.881L1035.5 151.962L1048.58 160.456L1060.7 170.271L1071.72 181.299L1081.54 193.42L1090.03 206.5L1097.12 220.396L1102.7 234.956L1106.74 250.021L1109.18 265.425L1110 281L1109.18 296.575L1106.74 311.979L1102.7 327.044L1097.12 341.604L1090.03 355.5L1081.54 368.58L1071.72 380.701L1060.7 391.729L1048.58 401.544L1035.5 410.038L1021.61 417.119L1007.04 422.707L991.976 426.744L976.575 429.184L961 430L945.425 429.184L930.021 426.744L914.956 422.707L900.396 417.119L886.5 410.038L873.42 401.544L861.299 391.729L850.271 380.701L840.456 368.58L831.962 355.5L824.881 341.604L819.293 327.044L815.256 311.979L812.816 296.575L812 281L812.816 265.425L815.256 250.021L819.293 234.956L824.881 220.396L831.962 206.5L840.456 193.42L850.271 181.299L861.299 170.271L873.42 160.456L886.5 151.962L900.396 144.881L914.956 139.293L930.021 135.256L945.425 132.816L961 132Z" fill="white"/>
</mask>
<g mask="url(#mask0_414_196)">
<path d="M744.969 251.746L841.66 284.78M744.969 251.746C744.969 251.746 704.471 296.757 702.241 303.383C700.012 310.008 717.471 367.621 721.163 374C724.856 380.379 774.765 422.6 779.34 424.722M744.969 251.746C744.969 251.746 740.783 236.123 739.61 231.748C738.438 227.373 760.23 199.43 760.23 199.43M841.66 284.78C841.66 284.78 849.242 334.323 850.522 342.688M841.66 284.78C844.199 280.349 869.677 256.063 882.099 244.473M779.34 424.722C807.138 392.686 843.275 347.979 850.522 342.688M779.34 424.722C780.713 429.847 781.684 433.472 782.856 437.846C784.028 442.221 841.597 468.323 841.597 468.323M760.23 199.43L750.511 145.772C750.511 145.772 762.46 108.41 791.257 96.6751M760.23 199.43L838.021 154.474M850.522 342.688C858.572 347.898 958.082 381.517 958.082 381.517M882.099 244.473L887.644 198.111M882.099 244.473C882.099 244.473 934.737 274.576 995.49 295.135M958.082 381.517C958.082 381.517 977.162 350.952 995.49 295.135M958.082 381.517L841.597 468.323M958.082 381.517L981.886 420.685M841.597 468.323L849.223 485.704C862.105 493.438 882.415 505.661 898.456 515.379C911.229 523.117 921.296 529.268 922.753 530.302M791.257 96.6751L838.021 154.474M791.257 96.6751L828.515 44.4943M838.021 154.474L880.276 170.613M880.276 170.613C880.988 178.238 883.458 194.41 887.644 198.111M880.276 170.613C884.573 166.784 899.013 146.169 905.696 136.341M828.515 44.4943C863.259 59.9676 873.519 65.9256 909.88 92.3521M828.515 44.4943C830.999 43.8289 881.066 9.65065 892.242 6.65509C903.417 3.65954 948.352 29.7991 948.352 29.7991M887.644 198.111L975.174 199.44M995.49 295.135C1002.88 290.477 1016.84 285.397 1016.84 285.397M975.174 199.44L1026.92 231.122M975.174 199.44L960.773 145.696M1026.92 231.122L1022.9 275.735M1026.92 231.122L1065.06 184.732M960.773 145.696L905.696 136.341M960.773 145.696L1025.34 110.981M1022.9 275.735L1016.84 285.397M1022.9 275.735C1022.9 275.735 1073.06 289.087 1123.7 294.274M1065.06 184.732L1049.8 117.823M1065.06 184.732C1065.06 184.732 1110.93 192.444 1140.32 197.387M1016.84 285.397C1016.84 285.397 1036.87 298.114 1094.16 367.829M1123.7 294.274C1134.12 291.481 1150.39 287.121 1150.39 287.121M1123.7 294.274C1112.16 322.999 1109.79 319.433 1094.16 367.829M1094.16 367.829C1097.36 379.787 1102.37 398.45 1102.37 398.45M981.886 420.685C981.886 420.685 1028.97 437.539 1060.21 447.255M981.886 420.685C963.544 458.198 926.04 532.637 922.753 530.302M922.753 530.302C922.753 530.302 924.427 536.552 926.939 545.926C929.45 555.3 999.52 573.364 1008.82 570.872C1018.12 568.38 1071.54 511.87 1072.85 506.831C1074.16 501.791 1075.11 485.462 1075.11 485.462M905.696 136.341L909.88 92.3521M909.88 92.3521L948.959 54.419M948.959 54.419L948.352 29.7991M948.959 54.419L1025.34 110.981M948.352 29.7991L969.454 6.72987M969.454 6.72987C969.454 6.72987 1029.87 43.4561 1082.37 65.5571M969.454 6.72987L1004.07 -10.5847L1053.83 -11.1882L1096.49 18.9069L1111.24 49.1148M1025.34 110.981L1049.29 115.949C1049.29 115.949 1069.46 85.2362 1082.37 65.5571M1082.37 65.5571C1093.25 57.6718 1110.24 45.3653 1110.24 45.3653L1155.9 69.2963M1155.9 69.2963C1155.9 69.2963 1158.46 140.951 1140.32 197.387M1155.9 69.2963C1174.51 83.0679 1200.14 113.486 1210.62 126.974L1202.41 180.75M1140.32 197.387C1147.6 202.237 1158.96 209.808 1158.96 209.808M1158.96 209.808L1202.41 180.75M1158.96 209.808L1171.52 256.678M1202.41 180.75L1248.9 215.179L1267.28 298.668M1267.28 298.668L1171.52 256.678M1267.28 298.668L1275.15 328.04L1250.97 361.981L1207.18 389.789M1171.52 256.678L1150.39 287.121M1150.39 287.121C1150.39 287.121 1164.63 332.87 1166.93 381.149M1166.93 381.149C1158.51 386.546 1153.78 389.572 1145.35 394.97M1166.93 381.149C1182.65 384.523 1207.18 389.789 1207.18 389.789M1102.37 398.45C1102.37 398.45 1128.56 396.329 1145.35 394.97M1102.37 398.45C1102.37 398.45 1075.59 427.727 1060.21 447.255M1145.35 394.97C1158.42 436.345 1156.82 441.88 1163.79 473.752M1207.18 389.789C1207.18 389.789 1180.96 439.856 1163.79 473.752M1163.79 473.752C1156.85 477.623 1075.11 485.462 1075.11 485.462M1060.21 447.255C1066.53 460.967 1075.11 485.462 1075.11 485.462" stroke="url(#paint16_linear_414_196)" stroke-width="18"/>
</g>
<path d="M846.278 555.5C852.821 544.167 869.179 544.167 875.722 555.5L945.004 675.5C951.548 686.833 943.369 701 930.282 701H791.718C778.631 701 770.452 686.833 776.996 675.5L846.278 555.5Z" stroke="#4FCABB" stroke-width="36"/>
<path d="M1236 489H486" stroke="#4FCABB" stroke-width="36" stroke-linecap="round"/>
<defs>
<radialGradient id="paint0_radial_414_196" cx="0" cy="0" r="1" gradientUnits="userSpaceOnUse" gradientTransform="translate(895.341 153.129) scale(101.885 98.8321)">
<stop stop-color="#FFEAFF" stop-opacity="0.6"/>
<stop offset="0.6807" stop-color="#A087C9"/>
<stop offset="1" stop-color="#10002F"/>
</radialGradient>
<radialGradient id="paint1_radial_414_196" cx="0" cy="0" r="1" gradientUnits="userSpaceOnUse" gradientTransform="translate(851.049 258.979) scale(283.263 295.309)">
<stop stop-color="#FFEAFF" stop-opacity="0.6"/>
<stop offset="0.6807" stop-color="#A087C9"/>
<stop offset="1" stop-color="#10002F"/>
</radialGradient>
<linearGradient id="paint2_linear_414_196" x1="717.208" y1="403.242" x2="756.126" y2="158.308" gradientUnits="userSpaceOnUse">
<stop stop-color="#81FFFF"/>
<stop offset="0.6202" stop-color="white" stop-opacity="0"/>
</linearGradient>
<linearGradient id="paint3_linear_414_196" x1="826.854" y1="196.542" x2="724.392" y2="293.071" gradientUnits="userSpaceOnUse">
<stop offset="0.2888" stop-color="white"/>
<stop offset="0.7796" stop-color="white" stop-opacity="0"/>
</linearGradient>
<linearGradient id="paint4_linear_414_196" x1="617.103" y1="337.93" x2="857.942" y2="337.93" gradientUnits="userSpaceOnUse">
<stop stop-color="#0002E9"/>
<stop offset="0.9952" stop-color="#FF00C7"/>
</linearGradient>
<linearGradient id="paint5_linear_414_196" x1="869.182" y1="289.838" x2="740.761" y2="413.487" gradientUnits="userSpaceOnUse">
<stop offset="0.2888" stop-color="white"/>
<stop offset="0.7796" stop-color="white" stop-opacity="0"/>
</linearGradient>
<linearGradient id="paint6_linear_414_196" x1="617.645" y1="338.345" x2="746.134" y2="338.345" gradientUnits="userSpaceOnUse">
<stop stop-color="#000292"/>
<stop offset="0.9952" stop-color="#7D00C7"/>
</linearGradient>
<linearGradient id="paint7_linear_414_196" x1="617.264" y1="290.573" x2="858.006" y2="290.573" gradientUnits="userSpaceOnUse">
<stop stop-color="#000292"/>
<stop offset="0.9952" stop-color="#BE00C7"/>
</linearGradient>
<linearGradient id="paint8_linear_414_196" x1="871.96" y1="164.15" x2="854.911" y2="191.384" gradientUnits="userSpaceOnUse">
<stop offset="0.2888" stop-color="white"/>
<stop offset="0.7796" stop-color="white" stop-opacity="0"/>
</linearGradient>
<linearGradient id="paint9_linear_414_196" x1="740.064" y1="367.186" x2="749.63" y2="367.186" gradientUnits="userSpaceOnUse">
<stop offset="0.2888" stop-color="white"/>
<stop offset="0.7796" stop-color="white" stop-opacity="0"/>
</linearGradient>
<linearGradient id="paint10_linear_414_196" x1="773.052" y1="364.018" x2="782.616" y2="364.018" gradientUnits="userSpaceOnUse">
<stop offset="0.2888" stop-color="white"/>
<stop offset="0.7796" stop-color="white" stop-opacity="0"/>
</linearGradient>
<linearGradient id="paint11_linear_414_196" x1="758.31" y1="379.899" x2="765.492" y2="379.899" gradientUnits="userSpaceOnUse">
<stop offset="0.2888" stop-color="white"/>
<stop offset="0.7796" stop-color="white" stop-opacity="0"/>
</linearGradient>
<linearGradient id="paint12_linear_414_196" x1="787.476" y1="376.565" x2="794.657" y2="376.565" gradientUnits="userSpaceOnUse">
<stop offset="0.2888" stop-color="white"/>
<stop offset="0.7796" stop-color="white" stop-opacity="0"/>
</linearGradient>
<linearGradient id="paint13_linear_414_196" x1="709.168" y1="360.985" x2="724.789" y2="360.985" gradientUnits="userSpaceOnUse">
<stop offset="0.2888" stop-color="white"/>
<stop offset="0.7796" stop-color="white" stop-opacity="0"/>
</linearGradient>
<linearGradient id="paint14_linear_414_196" x1="801.945" y1="335.905" x2="817.566" y2="335.905" gradientUnits="userSpaceOnUse">
<stop offset="0.2888" stop-color="white"/>
<stop offset="0.7796" stop-color="white" stop-opacity="0"/>
</linearGradient>
<linearGradient id="paint15_linear_414_196" x1="879.96" y1="132.037" x2="1039.69" y2="421.063" gradientUnits="userSpaceOnUse">
<stop stop-color="#745EFF"/>
<stop offset="1" stop-color="#41DDCA"/>
</linearGradient>
<linearGradient id="paint16_linear_414_196" x1="860.261" y1="161.519" x2="1062.38" y2="401.027" gradientUnits="userSpaceOnUse">
<stop stop-color="#7761FF"/>
<stop offset="1" stop-color="#40DBC8"/>
</linearGradient>
</defs>
</svg>
