<svg width="48" height="49" viewBox="0 0 48 49" fill="none" xmlns="http://www.w3.org/2000/svg">
<path d="M32.75 30.625C32.75 35.3737 28.8474 39.25 24 39.25C19.1526 39.25 15.25 35.3737 15.25 30.625C15.25 28.2044 16.4786 24.5838 18.3961 20.5896C19.9639 17.3239 21.9274 13.9381 23.852 10.9762C24.7255 12.6509 25.691 14.3895 26.6451 16.1075C27.5673 17.7681 28.4788 19.4095 29.2863 20.9554C30.2946 22.8858 31.1687 24.7134 31.7892 26.3764C32.4147 28.0528 32.75 29.4786 32.75 30.625Z" stroke="white" stroke-width="2.5"/>
<path d="M24 30.5377L18.1405 28.9954C17.7635 30.4169 17.9201 31.9266 18.5809 33.2412C19.2417 34.5558 20.3613 35.5851 21.7297 36.1358L24 30.5377ZM24 30.5377L24.0635 24.5003C22.7185 24.4863 21.4071 24.9184 20.3358 25.7285C19.2644 26.5386 18.494 27.6808 18.1459 28.9751L24 30.5377ZM30.0606 30.5377C30.0606 33.8723 27.3472 36.5755 24 36.5755C20.6528 36.5755 17.9394 33.8723 17.9394 30.5377C17.9394 27.2032 20.6528 24.5 24 24.5C27.3472 24.5 30.0606 27.2032 30.0606 30.5377Z" stroke="white" stroke-width="2" stroke-linecap="round" stroke-linejoin="round"/>
</svg>
