<svg width="43" height="48" viewBox="0 0 43 48" fill="none" xmlns="http://www.w3.org/2000/svg">
<g clip-path="url(#clip0_101_196)">
<path d="M21.2398 1.57932L40.7425 12.7897V35.2103L21.2398 46.4207L1.73712 35.2103V12.7897L21.2398 1.57932Z" stroke="white" stroke-width="3"/>
<path d="M8.49442 21.8702L1.06289 16.9376C1.06289 16.9376 1.06289 15.5363 1.06289 15.144C1.06289 14.7515 3.54007 12.9019 3.54007 12.9019L11.1405 10.884L14.3495 13.1821M8.49442 21.8702C8.49442 21.8702 8.01275 26.1861 7.93142 26.9148M8.49442 21.8702C8.80969 21.5563 11.5158 20.0951 12.8295 19.4039M7.93142 26.9148C7.1984 27.195 3.12759 30.1261 0.0494995 32.1837C0.0494995 32.6434 0.0494995 32.9684 0.0494995 33.3607C0.0494995 33.7531 4.32826 37.2283 4.32826 37.2283L16.1511 32.576M7.93142 26.9148C8.49442 27.5313 16.1511 32.576 16.1511 32.576M12.8295 19.4039L14.3495 15.6484M12.8295 19.4039C12.8295 19.4039 16.6004 23.1033 21.2744 26.1861M16.1511 32.576C16.1511 32.576 18.4583 30.446 21.2744 26.1861M16.1511 32.576L17.2771 36.3875C17.2771 36.3875 20.8791 38.8538 23.3012 40.3672M14.3495 13.1821C14.2369 13.8361 14.0793 15.2448 14.3495 15.6484M14.3495 13.1821C14.7999 12.9579 16.4889 11.5567 17.2771 10.884M14.3495 15.6484L21.7248 17.7223M21.2744 26.1861C22.0051 25.9619 23.3012 25.8498 23.3012 25.8498M21.7248 17.7223L25.3842 21.5339M21.7248 17.7223V12.9019M25.3842 21.5339L24.033 25.1771M25.3842 21.5339L29.663 18.5071M21.7248 12.9019L17.2771 10.884M21.7248 12.9019L27.974 11.4445M24.033 25.1771L23.3012 25.8498M24.033 25.1771C24.033 25.1771 27.974 27.4192 32.1401 28.9887M29.663 18.5071L29.8882 12.5656M29.663 18.5071C29.663 18.5071 33.3688 20.181 35.7433 21.2535C36.2491 21.8226 37.0383 22.7109 37.0383 22.7109M23.3012 25.8498C23.3012 25.8498 24.7075 27.3632 27.974 34.4817M32.1401 28.9887C33.0855 28.9887 34.5611 28.9887 34.5611 28.9887M32.1401 28.9887C30.5132 31.1339 30.3938 30.7823 27.974 34.4817M27.974 34.4817C27.974 35.5544 27.974 37.2283 27.974 37.2283M17.2771 10.884C17.2771 10.884 18.1006 8.69763 18.6283 7.29669M18.6283 7.29669C20.2553 6.39922 22.7944 4.99857 22.7944 4.99857M18.6283 7.29669C13.6966 1.09086 23.3012 2.92466 23.3012 2.92466L22.7944 4.99857M22.7944 4.99857L27.974 11.4445M27.974 11.4445L29.8882 12.3974C29.8882 12.3974 32.2901 10.2794 33.8291 8.92215M37.0383 22.7109L41.3732 21.2535M37.0383 22.7109V26.9148L34.5611 28.9887M34.5611 28.9887C34.5611 28.9887 34.7288 33.1365 33.8291 37.2283C32.9936 37.491 31.6897 37.901 31.6897 37.901M27.974 37.2283L31.6897 37.901M27.974 37.2283C27.974 37.2283 25.0453 39.078 23.3012 40.3672M31.6897 37.901C31.6897 37.901 29.2855 42.5548 29.0369 42.5454C28.7882 42.536 23.6952 43.8984 23.6952 43.8984C23.6952 43.8984 23.5253 41.6563 23.3012 40.3672M21.2167 1.57932L40.7194 12.7897V35.2103L21.2167 46.4207L1.71406 35.2103V12.7897L21.2167 1.57932Z" stroke="white" stroke-width="1.5"/>
</g>
<defs>
<clipPath id="clip0_101_196">
<rect width="43" height="48" fill="white"/>
</clipPath>
</defs>
</svg>
