<svg width="276" height="319" viewBox="0 0 276 319" fill="none" xmlns="http://www.w3.org/2000/svg">
<path d="M138.164 9L268.327 84.15V234.45L138.164 309.6L8 234.45V84.15L138.164 9Z" stroke="url(#paint0_linear_419_100)" stroke-width="15"/>
<mask id="mask0_419_100" style="mask-type:alpha" maskUnits="userSpaceOnUse" x="8" y="9" width="261" height="301">
<path d="M138.164 9L268.327 84.15V234.45L138.164 309.6L8 234.45V84.15L138.164 9Z" fill="white"/>
</mask>
<g mask="url(#mask0_419_100)">
<path d="M3.65306 111.956L53.2521 145.022M3.65306 111.956C3.65306 111.956 -26.0243 131.118 -28.2857 134.501C-30.5471 137.883 -29.4054 172.827 -28.2857 176.961C-27.166 181.094 -5.37249 212.28 -3.11044 214.16M3.65306 111.956C3.65306 111.956 3.65306 102.562 3.65306 99.9315C3.65306 97.3016 20.1861 84.9015 20.1861 84.9015M53.2521 145.022C53.2521 145.022 50.037 173.955 49.4946 178.839M53.2521 145.022C55.3563 142.917 73.4171 133.123 82.1846 128.489M-3.11044 214.16C17.4331 200.366 44.6022 180.717 49.4946 178.839M-3.11044 214.16C-3.11044 217.241 -3.11044 219.42 -3.11044 222.051C-3.11044 224.681 25.4466 247.977 25.4466 247.977M20.1861 84.9015L22.8164 53.3385C22.8164 53.3385 35.2161 34.1753 53.2521 31.9208M20.1861 84.9015L70.9121 71.3745M49.4946 178.839C53.2521 182.973 104.354 216.789 104.354 216.789M82.1846 128.489L92.3301 103.314M82.1846 128.489C82.1846 128.489 107.352 153.288 138.547 173.955M104.354 216.789C104.354 216.789 119.752 202.512 138.547 173.955M104.354 216.789L25.4466 247.977M104.354 216.789L111.869 242.34M25.4466 247.977L27.123 258.873C33.227 265.149 42.846 275.058 50.4332 282.921C56.4746 289.183 61.2281 294.147 61.8941 294.945M53.2521 31.9208L70.9121 71.3745M53.2521 31.9208L82.1846 8.24853M70.9121 71.3745L92.3301 86.7806M92.3301 86.7806C91.5786 91.164 90.5265 100.608 92.3301 103.314M92.3301 86.7806C95.3361 85.2776 106.609 75.8835 111.869 71.3745M82.1846 8.24853C99.4617 22.1513 104.354 27.036 120.887 47.3265M82.1846 8.24853C83.6876 8.24853 117.13 -3.39909 123.893 -3.39972C130.657 -3.40035 152.074 18.018 152.074 18.018M92.3301 103.314L141.553 117.216M138.547 173.955C143.424 172.452 152.074 171.699 152.074 171.699M141.553 117.216L165.977 142.767M141.553 117.216V84.9015M165.977 142.767L156.959 167.191M165.977 142.767L194.534 122.477M141.553 84.9015L111.869 71.3745M141.553 84.9015L183.262 75.132M156.959 167.191L152.074 171.699M156.959 167.191C156.959 167.191 183.262 182.22 211.067 192.741M194.534 122.477L196.037 82.647M194.534 122.477C194.534 122.477 219.268 133.698 235.115 140.889M152.074 171.699C152.074 171.699 161.46 181.845 183.262 229.566M211.067 192.741C217.377 192.741 227.224 192.741 227.224 192.741M211.067 192.741C200.208 207.122 199.411 204.765 183.262 229.566M183.262 229.566C183.262 236.755 183.262 247.977 183.262 247.977M111.869 242.34C111.869 242.34 135.909 258.873 152.074 269.019M111.869 242.34C95.8371 260.628 63.3971 296.75 61.8941 294.945M61.8941 294.945C61.8941 294.945 61.8941 298.704 61.8941 304.34C61.8941 309.975 98.7256 330.642 104.354 330.642C109.983 330.642 148.693 306.969 150.196 304.34C151.699 301.71 154.705 292.692 154.705 292.692M111.869 71.3745L120.887 47.3265M120.887 47.3265L148.693 31.9208M148.693 31.9208L152.074 18.018M148.693 31.9208L183.262 75.132M152.074 18.018L167.48 8.24853M167.48 8.24853C167.48 8.24853 196.037 37.9328 222.34 58.2233M167.48 8.24853L189.649 3.73953L217.831 10.8788L237.37 34.1753L241.127 53.3385M183.262 75.132L196.037 81.5201C196.037 81.5201 212.068 67.3211 222.34 58.2233M222.34 58.2233C229.676 55.4352 241.127 51.084 241.127 51.084L263.296 71.3745M263.296 71.3745C263.296 71.3745 253.895 111.956 235.115 140.889M263.296 71.3745C271.713 81.8955 281.583 102.813 285.466 111.956L272.69 140.889M235.115 140.889C238.49 144.704 243.757 150.658 243.757 150.658M243.757 150.658L272.69 140.889M243.757 150.658V178.839M272.69 140.889L293.732 167.191L291.478 216.789M291.478 216.789L243.757 178.839M291.478 216.789V234.45L272.69 249.855L243.757 258.873M243.757 178.839L227.224 192.741M227.224 192.741C227.224 192.741 228.344 220.548 222.34 247.977M222.34 247.977C216.764 249.738 213.637 250.725 208.061 252.486M222.34 247.977C230.704 252.232 243.757 258.873 243.757 258.873M183.262 247.977C183.262 247.977 198.376 250.725 208.061 252.486M183.262 247.977C183.262 247.977 163.715 260.376 152.074 269.019M208.061 252.486C209.181 277.662 207.439 280.525 206.558 299.454M243.757 258.873C243.757 258.873 221.379 283.02 206.558 299.454M206.558 299.454C202.049 300.582 154.705 292.692 154.705 292.692M152.074 269.019C153.57 277.662 154.705 292.692 154.705 292.692" stroke="url(#paint1_linear_419_100)" stroke-width="9"/>
</g>
<defs>
<linearGradient id="paint0_linear_419_100" x1="37.3085" y1="9" x2="211.657" y2="319.37" gradientUnits="userSpaceOnUse">
<stop stop-color="#8C79FF"/>
<stop offset="1" stop-color="#4FCABB"/>
</linearGradient>
<linearGradient id="paint1_linear_419_100" x1="36.7114" y1="8.24854" x2="211.059" y2="320.873" gradientUnits="userSpaceOnUse">
<stop stop-color="#8C79FF"/>
<stop offset="1" stop-color="#4FCABB"/>
</linearGradient>
</defs>
</svg>
