<svg width="355" height="392" viewBox="0 0 355 392" fill="none" xmlns="http://www.w3.org/2000/svg">
<path d="M177.5 9L346.999 102.5V289.5L177.5 383L8 289.5V102.5L177.5 9Z" fill="black" stroke="url(#paint0_linear_419_100)" stroke-width="15"/>
<mask id="mask0_419_100" style="mask-type:alpha" maskUnits="userSpaceOnUse" x="8" y="9" width="339" height="374">
<path d="M177.5 9L347 102.5V289.5L177.5 383L8 289.5V102.5L177.5 9Z" fill="white"/>
</mask>
<g mask="url(#mask0_419_100)">
<path d="M2.33882 137.095L66.927 178.235M2.33882 137.095C2.33882 137.095 -36.3072 160.937 -39.252 165.145C-42.1968 169.353 -40.7101 212.83 -39.252 217.973C-37.7939 223.115 -9.4143 261.917 -6.46865 264.255M2.33882 137.095C2.33882 137.095 2.33882 125.408 2.33882 122.135C2.33882 118.863 23.8683 103.435 23.8683 103.435M66.927 178.235C66.927 178.235 62.7403 214.233 62.034 220.31M66.927 178.235C69.6671 175.617 93.1859 163.431 104.603 157.665M-6.46865 264.255C20.2833 247.093 55.663 222.647 62.034 220.31M-6.46865 264.255C-6.46865 268.089 -6.46865 270.8 -6.46865 274.073C-6.46865 277.345 30.7185 306.33 30.7185 306.33M23.8683 103.435L27.2934 64.165C27.2934 64.165 43.4405 40.3225 66.927 37.5175M23.8683 103.435L89.9239 86.605M62.034 220.31C66.927 225.453 133.472 267.527 133.472 267.527M104.603 157.665L117.815 126.343M104.603 157.665C104.603 157.665 137.376 188.52 177.999 214.233M133.472 267.527C133.472 267.527 153.524 249.763 177.999 214.233M133.472 267.527L30.7185 306.33M133.472 267.527L143.258 299.317M30.7185 306.33L32.9016 319.887C40.8502 327.695 53.3762 340.024 63.2562 349.807C71.1233 357.597 77.3133 363.773 78.1806 364.767M66.927 37.5175L89.9239 86.605M66.927 37.5175L104.603 8.06501M89.9239 86.605L117.815 105.773M117.815 105.773C116.836 111.227 115.466 122.977 117.815 126.343M117.815 105.773C121.729 103.903 136.408 92.215 143.258 86.605M104.603 8.06501C127.101 25.3625 133.472 31.44 155.002 56.685M104.603 8.06501C106.56 8.06501 150.109 -6.42671 158.916 -6.42749C167.724 -6.42827 195.614 20.22 195.614 20.22M117.815 126.343L181.913 143.64M177.999 214.233C184.35 212.363 195.614 211.427 195.614 211.427M181.913 143.64L213.718 175.43M181.913 143.64V103.435M213.718 175.43L201.975 205.818M213.718 175.43L250.905 150.185M181.913 103.435L143.258 86.605M181.913 103.435L236.226 91.28M201.975 205.818L195.614 211.427M201.975 205.818C201.975 205.818 236.226 224.517 272.435 237.607M250.905 150.185L252.863 100.63M250.905 150.185C250.905 150.185 283.113 164.147 303.75 173.093M195.614 211.427C195.614 211.427 207.836 224.05 236.226 283.423M272.435 237.607C280.652 237.607 293.474 237.607 293.474 237.607M272.435 237.607C258.294 255.499 257.256 252.567 236.226 283.423M236.226 283.423C236.226 292.368 236.226 306.33 236.226 306.33M143.258 299.317C143.258 299.317 174.564 319.887 195.614 332.51M143.258 299.317C122.382 322.07 80.1378 367.012 78.1806 364.767M78.1806 364.767C78.1806 364.767 78.1806 369.443 78.1806 376.455C78.1806 383.467 126.143 409.18 133.472 409.18C140.802 409.18 191.21 379.727 193.167 376.455C195.125 373.183 199.039 361.963 199.039 361.963M143.258 86.605L155.002 56.685M155.002 56.685L191.21 37.5175M191.21 37.5175L195.614 20.22M191.21 37.5175L236.226 91.28M195.614 20.22L215.675 8.06501M215.675 8.06501C215.675 8.06501 252.863 44.9975 287.114 70.2425M215.675 8.06501L244.544 2.45501L281.242 11.3375L306.686 40.3225L311.579 64.165M236.226 91.28L252.863 99.2279C252.863 99.2279 273.738 81.5618 287.114 70.2425M287.114 70.2425C296.668 66.7737 311.579 61.36 311.579 61.36L340.448 86.605M340.448 86.605C340.448 86.605 328.205 137.095 303.75 173.093M340.448 86.605C351.408 99.695 364.26 125.72 369.317 137.095L352.681 173.093M303.75 173.093C308.145 177.839 315.004 185.248 315.004 185.248M315.004 185.248L352.681 173.093M315.004 185.248V220.31M352.681 173.093L380.082 205.818L377.146 267.527M377.146 267.527L315.004 220.31M377.146 267.527V289.5L352.681 308.667L315.004 319.887M315.004 220.31L293.474 237.607M293.474 237.607C293.474 237.607 294.932 272.203 287.114 306.33M287.114 306.33C279.853 308.521 275.781 309.749 268.52 311.94M287.114 306.33C298.006 311.624 315.004 319.887 315.004 319.887M236.226 306.33C236.226 306.33 255.909 309.749 268.52 311.94M236.226 306.33C236.226 306.33 210.772 321.757 195.614 332.51M268.52 311.94C269.978 343.263 267.71 346.826 266.563 370.377M315.004 319.887C315.004 319.887 285.863 349.929 266.563 370.377M266.563 370.377C260.691 371.78 199.039 361.963 199.039 361.963M195.614 332.51C197.561 343.263 199.039 361.963 199.039 361.963" stroke="url(#paint1_linear_419_100)" stroke-width="9"/>
</g>
<defs>
<linearGradient id="paint0_linear_419_100" x1="46.1657" y1="9" x2="257.844" y2="403.398" gradientUnits="userSpaceOnUse">
<stop stop-color="#8C79FF"/>
<stop offset="1" stop-color="#4FCABB"/>
</linearGradient>
<linearGradient id="paint1_linear_419_100" x1="45.3877" y1="8.06502" x2="257.016" y2="405.235" gradientUnits="userSpaceOnUse">
<stop stop-color="#8C79FF"/>
<stop offset="1" stop-color="#4FCABB"/>
</linearGradient>
</defs>
</svg>
