<svg width="1722" height="827" viewBox="0 0 1722 827" fill="none" xmlns="http://www.w3.org/2000/svg">
<path d="M1257 564.5C1340.12 564.5 1407.5 497.119 1407.5 414C1407.5 330.881 1340.12 263.5 1257 263.5C1173.88 263.5 1106.5 330.881 1106.5 414C1106.5 497.119 1173.88 564.5 1257 564.5Z" fill="black" stroke="url(#paint0_linear_414_108)" stroke-width="17"/>
<mask id="mask0_414_108" style="mask-type:alpha" maskUnits="userSpaceOnUse" x="1098" y="255" width="318" height="318">
<path d="M1257 255L1273.62 255.871L1290.06 258.475L1306.13 262.782L1321.67 268.746L1336.5 276.302L1350.46 285.366L1363.39 295.84L1375.16 307.608L1385.63 320.542L1394.7 334.5L1402.25 349.329L1408.22 364.866L1412.53 380.942L1415.13 397.38L1416 414L1415.13 430.62L1412.53 447.058L1408.22 463.134L1402.25 478.671L1394.7 493.5L1385.63 507.458L1375.16 520.392L1363.39 532.16L1350.46 542.634L1336.5 551.698L1321.67 559.254L1306.13 565.218L1290.06 569.525L1273.62 572.129L1257 573L1240.38 572.129L1223.94 569.525L1207.87 565.218L1192.33 559.254L1177.5 551.698L1163.54 542.634L1150.61 532.16L1138.84 520.392L1128.37 507.458L1119.3 493.5L1111.75 478.671L1105.78 463.134L1101.47 447.058L1098.87 430.62L1098 414L1098.87 397.38L1101.47 380.942L1105.78 364.866L1111.75 349.329L1119.3 334.5L1128.37 320.542L1138.84 307.608L1150.61 295.84L1163.54 285.366L1177.5 276.302L1192.33 268.746L1207.87 262.782L1223.94 258.475L1240.38 255.871L1257 255Z" fill="white"/>
</mask>
<g mask="url(#mask0_414_108)">
<path d="M1026.47 382.783L1129.65 418.034M1026.47 382.783C1026.47 382.783 983.254 430.815 980.875 437.885C978.496 444.955 997.127 506.435 1001.07 513.242C1005.01 520.049 1058.27 565.103 1063.15 567.368M1026.47 382.783C1026.47 382.783 1022 366.111 1020.75 361.443C1019.5 356.774 1042.76 326.956 1042.76 326.956M1129.65 418.034C1129.65 418.034 1137.74 470.902 1139.11 479.828M1129.65 418.034C1132.36 413.305 1159.55 387.389 1172.8 375.022M1063.15 567.368C1092.81 533.182 1131.37 485.474 1139.11 479.828M1063.15 567.368C1064.61 572.837 1065.65 576.705 1066.9 581.373C1068.15 586.041 1129.58 613.895 1129.58 613.895M1042.76 326.956L1032.38 269.696C1032.38 269.696 1045.14 229.827 1075.87 217.304M1042.76 326.956L1125.77 278.982M1139.11 479.828C1147.7 485.388 1253.89 521.263 1253.89 521.263M1172.8 375.022L1178.72 325.548M1172.8 375.022C1172.8 375.022 1228.97 407.145 1293.81 429.084M1253.89 521.263C1253.89 521.263 1274.25 488.647 1293.81 429.084M1253.89 521.263L1129.58 613.895M1253.89 521.263L1279.29 563.06M1129.58 613.895L1137.72 632.442C1151.47 640.696 1173.14 653.739 1190.26 664.109C1203.89 672.366 1214.63 678.93 1216.19 680.034M1075.87 217.304L1125.77 278.982M1075.87 217.304L1115.62 161.621M1125.77 278.982L1170.86 296.205M1170.86 296.205C1171.62 304.341 1174.25 321.598 1178.72 325.548M1170.86 296.205C1175.44 292.118 1190.85 270.12 1197.98 259.632M1115.62 161.621C1152.7 178.133 1163.65 184.491 1202.45 212.691M1115.62 161.621C1118.27 160.911 1171.7 124.439 1183.63 121.243C1195.55 118.046 1243.5 145.94 1243.5 145.94M1178.72 325.548L1272.13 326.966M1293.81 429.084C1301.69 424.113 1316.59 418.692 1316.59 418.692M1272.13 326.966L1327.34 360.774M1272.13 326.966L1256.76 269.615M1327.34 360.774L1323.06 408.382M1327.34 360.774L1368.05 311.271M1256.76 269.615L1197.98 259.632M1256.76 269.615L1325.65 232.57M1323.06 408.382L1316.59 418.692M1323.06 408.382C1323.06 408.382 1376.58 422.63 1430.61 428.165M1368.05 311.271L1351.75 239.872M1368.05 311.271C1368.05 311.271 1416.99 319.501 1448.36 324.775M1316.59 418.692C1316.59 418.692 1337.96 432.263 1399.1 506.656M1430.61 428.165C1441.74 425.184 1459.1 420.532 1459.1 420.532M1430.61 428.165C1418.3 458.818 1415.78 455.012 1399.1 506.656M1399.1 506.656C1402.51 519.417 1407.85 539.333 1407.85 539.333M1279.29 563.06C1279.29 563.06 1329.54 581.045 1362.87 591.413M1279.29 563.06C1259.72 603.09 1219.69 682.525 1216.19 680.034M1216.19 680.034C1216.19 680.034 1217.97 686.703 1220.65 696.706C1223.33 706.709 1298.1 725.986 1308.03 723.327C1317.95 720.667 1374.95 660.365 1376.35 654.987C1377.75 649.609 1378.76 632.183 1378.76 632.183M1197.98 259.632L1202.45 212.691M1202.45 212.691L1244.15 172.212M1244.15 172.212L1243.5 145.94M1244.15 172.212L1325.65 232.57M1243.5 145.94L1266.02 121.323M1266.02 121.323C1266.02 121.323 1330.49 160.514 1386.52 184.098M1266.02 121.323L1302.97 102.846L1356.05 102.202L1401.58 134.317L1417.32 166.552M1325.65 232.57L1351.22 237.871C1351.22 237.871 1372.73 205.098 1386.52 184.098M1386.52 184.098C1398.13 175.683 1416.25 162.551 1416.25 162.551L1464.99 188.088M1464.99 188.088C1464.99 188.088 1467.71 264.552 1448.36 324.775M1464.99 188.088C1484.83 202.784 1512.18 235.244 1523.38 249.636L1514.61 307.022M1448.36 324.775C1456.12 329.951 1468.24 338.03 1468.24 338.03M1468.24 338.03L1514.61 307.022M1468.24 338.03L1481.64 388.046M1514.61 307.022L1564.22 343.762L1583.83 432.854M1583.83 432.854L1481.64 388.046M1583.83 432.854L1592.23 464.197L1566.43 500.416L1519.7 530.09M1481.64 388.046L1459.1 420.532M1459.1 420.532C1459.1 420.532 1474.3 469.351 1476.76 520.87M1476.76 520.87C1467.76 526.63 1462.72 529.859 1453.72 535.619M1476.76 520.87C1493.53 524.471 1519.7 530.09 1519.7 530.09M1407.85 539.333C1407.85 539.333 1435.81 537.069 1453.72 535.619M1407.85 539.333C1407.85 539.333 1379.28 570.575 1362.87 591.413M1453.72 535.619C1467.67 579.77 1465.96 585.677 1473.41 619.688M1519.7 530.09C1519.7 530.09 1491.73 583.518 1473.41 619.688M1473.41 619.688C1466 623.819 1378.76 632.183 1378.76 632.183M1362.87 591.413C1369.61 606.045 1378.76 632.183 1378.76 632.183" stroke="url(#paint1_linear_414_108)" stroke-width="18"/>
</g>
<path d="M882 401C874.82 401 869 406.82 869 414C869 421.18 874.82 427 882 427V401ZM1061.19 423.192C1066.27 418.116 1066.27 409.884 1061.19 404.808L978.461 322.076C973.384 316.999 965.153 316.999 960.076 322.076C954.999 327.153 954.999 335.384 960.076 340.461L1033.62 414L960.076 487.539C954.999 492.616 954.999 500.847 960.076 505.924C965.153 511.001 973.384 511.001 978.461 505.924L1061.19 423.192ZM882 427H1052V401H882V427Z" fill="#4FCABB"/>
<path d="M829.195 306.165C826.129 294.375 816.271 282.585 798.526 269.462C784.285 259.007 769.169 253 757.12 253C754.71 253 752.518 253.223 750.328 253.668C744.852 254.78 740.031 258.784 736.965 264.789C733.241 271.908 732.364 281.474 734.774 287.256C735.649 289.036 736.746 291.261 738.06 293.263C726.449 300.381 719.876 302.384 719 302.606C749.233 312.839 774.427 334.194 790.2 362L790.42 359.331C791.076 351.99 793.268 343.536 796.335 334.861C799.401 335.751 802.468 336.196 805.536 336.196C813.641 336.196 820.651 332.859 825.033 326.853C829.415 320.846 831.167 312.839 829.195 306.165Z" fill="#5E12A0"/>
<path d="M797.945 328.23C818.006 333.824 826.162 318.159 823.516 307.64C820.65 297.122 811.392 286.38 795.078 274.295C778.767 262.21 762.234 257.287 751.651 259.524C741.07 261.762 737.984 278.099 740.628 284.366C741.732 286.827 744.156 290.409 747.463 294.436C743.275 297.346 739.306 299.583 736 301.597C756.281 310.773 773.917 325.096 787.143 343C788.686 336.957 790.89 331.586 792.875 326.886C794.417 327.11 796.181 327.558 797.945 328.23Z" fill="url(#paint2_radial_414_108)"/>
<path d="M683.001 548C750.93 548 806 492.036 806 423C806 353.964 750.93 298 683.001 298C615.068 298 560 353.964 560 423C560 492.036 615.068 548 683.001 548Z" fill="url(#paint3_radial_414_108)"/>
<path opacity="0.6" d="M812.483 297.554C795.861 279.55 781.864 274.824 765.025 270.998C751.903 267.848 755.401 260.196 771.367 261.771C763.713 259.07 756.496 258.396 751.246 259.52C740.748 261.771 737.687 278.199 740.311 284.5C741.404 286.977 743.81 290.577 747.092 294.627C741.187 298.679 736.156 301.604 732 303.855C733.969 304.754 736.374 305.88 739.218 307.455C746.654 311.505 754.746 318.256 754.746 318.256C742.499 307.455 745.122 302.504 761.962 290.351C767.212 286.527 776.833 286.977 785.8 291.702C794.768 296.428 805.265 308.355 805.265 308.355L795.205 328.159C795.861 328.384 796.518 328.609 797.173 328.835C803.515 330.634 808.545 330.184 812.483 328.609C817.076 325.683 829.103 315.781 812.483 297.554Z" fill="#A98698"/>
<path d="M765.358 282.068C769.739 283.847 775.433 286.96 782.443 291.63C790.765 297.189 797.994 303.415 802.594 308.307C794.927 318.535 789.889 332.545 786.824 342.329C788.357 344.553 790.108 346.776 791.642 349C793.175 343.441 795.803 335.214 799.308 326.986C800.184 327.208 801.28 327.208 802.374 327.208C805.002 327.208 808.069 326.764 810.478 324.762C812.23 323.428 814.202 320.982 813.983 316.534C813.983 312.309 810.698 306.973 803.907 300.524C799.089 295.855 792.518 290.741 785.947 286.07C767.11 273.396 753.968 269.837 748.054 275.842C744.112 279.844 744.55 284.736 745.865 288.294C738.856 292.963 732.941 296.299 729 298.523C731.628 299.412 734.037 300.524 736.665 301.636C743.673 297.856 753.749 291.407 765.358 282.068ZM806.755 313.866C807.412 314.978 807.631 316.09 807.631 316.757C807.631 318.758 806.975 319.426 806.535 319.87C805.66 320.538 803.907 320.982 802.374 320.982C803.688 318.314 805.221 316.09 806.755 313.866ZM752.654 280.734C753.312 280.067 755.064 279.622 757.912 280.067C755.722 281.846 753.53 283.403 751.34 284.959C751.121 283.403 751.341 281.846 752.654 280.734Z" fill="#5E12A0"/>
<path d="M683 290C611.193 290 553 349.312 553 422.501C553 495.688 611.193 555 683 555C754.808 555 813 495.688 813 422.501C813 349.312 754.588 290 683 290ZM683 547.614C615.145 547.614 560.246 491.66 560.246 422.501C560.246 353.341 615.145 297.386 683 297.386C750.855 297.386 805.755 353.341 805.755 422.501C805.755 491.66 750.637 547.614 683 547.614Z" fill="#5E12A0"/>
<path opacity="0.6" d="M683.001 548C750.93 548 806 492.036 806 423C806 353.964 750.93 298 683.001 298C615.068 298 560 353.964 560 423C560 492.036 615.068 548 683.001 548Z" fill="url(#paint4_linear_414_108)"/>
<path opacity="0.6" d="M681.947 532.707C614.953 521.754 569.484 457.604 580.467 389.432C585.3 359.257 600.237 333.552 621.323 315C590.572 333.105 567.728 364.621 561.577 403.067C550.814 471.238 596.282 535.389 663.058 546.341C700.398 552.599 736.421 540.754 763 517.507C739.497 531.365 710.942 537.4 681.947 532.707Z" fill="#A98698"/>
<path opacity="0.6" d="M702.967 299.647C671.956 294.505 641.825 301.659 617.192 317.53C616.753 317.976 616.312 318.423 616.312 318.423C625.769 312.611 639.626 307.47 639.626 307.47C603.996 328.482 593 352.399 593 352.399C606.855 325.129 647.543 305.906 679.434 304.564C711.324 303.223 732.216 312.835 757.729 333.623C783.241 354.635 798.637 397.552 797.097 431.529C795.778 465.507 778.183 493 778.183 493C790.279 477.128 797.537 465.507 802.155 453.658C803.035 450.082 803.916 446.506 804.356 442.705C815.352 374.753 770.045 310.6 702.967 299.647Z" fill="url(#paint5_linear_414_108)"/>
<path d="M800 422C800 487.11 747.608 540 683.111 540C618.611 540 566 487.11 566 422H800Z" fill="url(#paint6_linear_414_108)"/>
<g opacity="0.6">
<path opacity="0.6" d="M790.516 421.536C790.516 485.463 740.855 537.766 678.449 540.226C679.988 540.226 681.526 540.226 683.064 540.226C747.448 540.226 799.746 487.026 799.746 421.536H790.516Z" fill="url(#paint7_linear_414_108)"/>
</g>
<g opacity="0.7">
<path opacity="0.7" d="M579.201 437.027H564.633C564.633 494.915 610.86 541.939 667.77 541.939C670.295 541.939 672.625 541.939 674.956 541.74C621.543 537.789 579.201 492.347 579.201 437.027Z" fill="url(#paint8_linear_414_108)"/>
</g>
<path d="M800 422.714C800 409.082 776.644 401.259 745.575 398.578C723.1 396.79 700.406 399.024 674.407 407.069C651.932 413.775 631.661 412.656 616.898 410.868C584.068 407.069 566 406.623 566 422.714C566 445.957 612.712 475.009 682.779 464.952C718.254 459.813 736.542 449.309 757.474 442.156C780.169 434.559 800 434.781 800 422.714Z" fill="url(#paint9_linear_414_108)"/>
<path d="M721.501 366C732.27 366 741 357.046 741 346.001C741 334.954 732.27 326 721.501 326C710.731 326 702 334.954 702 346.001C702 357.046 710.731 366 721.501 366Z" fill="white"/>
<path d="M753.499 381C758.194 381 762 377.195 762 372.499C762 367.805 758.194 364 753.499 364C748.806 364 745 367.805 745 372.499C745 377.195 748.806 381 753.499 381Z" fill="white"/>
<g opacity="0.6">
<path opacity="0.6" d="M783.489 330.13C783.269 330.13 783.05 330.13 783.05 330.13C781.73 329.907 780.853 328.565 781.071 327C783.05 316.719 791.4 306.884 791.84 306.436C792.718 305.32 794.476 305.32 795.355 306.213C796.454 307.107 796.454 308.896 795.575 309.79C795.355 310.014 787.663 319.177 785.906 328.118C785.687 329.46 784.588 330.13 783.489 330.13Z" fill="url(#paint10_linear_414_108)"/>
</g>
<path opacity="0.2" d="M660.812 520.41C663.816 520.41 666.25 517.933 666.25 514.878C666.25 511.823 663.816 509.346 660.812 509.346C657.808 509.346 655.373 511.823 655.373 514.878C655.373 517.933 657.808 520.41 660.812 520.41Z" fill="white"/>
<g opacity="0.4">
<path opacity="0.6" d="M657.672 518.486C655.535 516.312 655.535 512.756 657.672 510.583C658.06 510.187 658.449 509.99 658.837 509.594C658.06 509.793 657.478 510.187 656.895 510.78C654.759 512.954 654.759 516.51 656.895 518.683C658.643 520.461 661.362 520.857 663.499 519.671C661.557 520.461 659.226 520.067 657.672 518.486Z" fill="url(#paint11_linear_414_108)"/>
</g>
<path opacity="0.3" d="M662.722 513.294C663.365 513.294 663.887 512.764 663.887 512.109C663.887 511.454 663.365 510.923 662.722 510.923C662.078 510.923 661.556 511.454 661.556 512.109C661.556 512.764 662.078 513.294 662.722 513.294Z" fill="white"/>
<path opacity="0.2" d="M706.998 513C710.314 513 713 510.089 713 506.499C713 502.909 710.314 500 706.998 500C703.685 500 701 502.909 701 506.499C701 510.089 703.685 513 706.998 513Z" fill="white"/>
<g opacity="0.4">
<path opacity="0.6" d="M686.031 515.704C683.894 513.53 683.894 509.973 686.031 507.799C686.419 507.405 686.808 507.207 687.196 506.812C686.419 507.009 685.837 507.405 685.254 507.998C683.118 510.17 683.118 513.727 685.254 515.901C687.003 517.679 689.721 518.073 691.858 516.888C689.916 517.679 687.586 517.283 686.031 515.704Z" fill="url(#paint12_linear_414_108)"/>
</g>
<path opacity="0.3" d="M691.081 510.524C691.725 510.524 692.246 509.994 692.246 509.339C692.246 508.685 691.725 508.154 691.081 508.154C690.437 508.154 689.916 508.685 689.916 509.339C689.916 509.994 690.437 510.524 691.081 510.524Z" fill="white"/>
<path opacity="0.2" d="M675.15 530.488C677.403 530.488 679.23 528.631 679.23 526.34C679.23 524.048 677.403 522.191 675.15 522.191C672.898 522.191 671.072 524.048 671.072 526.34C671.072 528.631 672.898 530.488 675.15 530.488Z" fill="white"/>
<g opacity="0.4">
<path opacity="0.6" d="M672.82 528.946C671.266 527.365 671.266 524.6 672.82 523.019C673.014 522.822 673.402 522.624 673.597 522.426C673.014 522.624 672.625 523.019 672.237 523.414C670.683 524.994 670.683 527.761 672.237 529.342C673.597 530.725 675.539 530.922 677.287 529.935C675.733 530.527 673.985 530.132 672.82 528.946Z" fill="url(#paint13_linear_414_108)"/>
</g>
<path opacity="0.3" d="M676.51 524.951C676.939 524.951 677.286 524.597 677.286 524.161C677.286 523.725 676.939 523.37 676.51 523.37C676.081 523.37 675.733 523.725 675.733 524.161C675.733 524.597 676.081 524.951 676.51 524.951Z" fill="white"/>
<path opacity="0.2" d="M719.499 524C721.984 524 724 521.986 724 519.501C724 517.014 721.984 515 719.499 515C717.016 515 715 517.014 715 519.501C715 521.986 717.016 524 719.499 524Z" fill="white"/>
<g opacity="0.4">
<path opacity="0.6" d="M716.904 522.169C715.147 520.379 715.147 517.251 716.904 515.462C717.125 515.24 717.564 515.017 717.783 514.792C717.125 515.017 716.684 515.462 716.245 515.91C714.487 517.697 714.487 520.827 716.245 522.616C717.783 524.18 719.98 524.403 721.958 523.287C720.201 523.958 718.222 523.51 716.904 522.169Z" fill="url(#paint14_linear_414_108)"/>
</g>
<path opacity="0.3" d="M721 518C721.553 518 722 517.552 722 516.999C722 516.447 721.553 516 721 516C720.448 516 720 516.447 720 516.999C720 517.552 720.448 518 721 518Z" fill="white"/>
<path opacity="0.2" d="M637.665 518.431C642.599 518.431 646.599 514.362 646.599 509.342C646.599 504.323 642.599 500.254 637.665 500.254C632.73 500.254 628.73 504.323 628.73 509.342C628.73 514.362 632.73 518.431 637.665 518.431Z" fill="white"/>
<g opacity="0.4">
<path opacity="0.6" d="M632.62 515.075C629.124 511.519 629.124 505.788 632.62 502.233C633.203 501.64 633.785 501.245 634.562 500.849C633.397 501.245 632.426 502.035 631.455 502.826C627.958 506.381 627.958 512.111 631.455 515.668C634.368 518.632 638.835 519.224 642.332 517.051C639.03 518.433 635.145 517.84 632.62 515.075Z" fill="url(#paint15_linear_414_108)"/>
</g>
<path opacity="0.3" d="M640.774 506.577C641.847 506.577 642.717 505.693 642.717 504.602C642.717 503.51 641.847 502.626 640.774 502.626C639.702 502.626 638.832 503.51 638.832 504.602C638.832 505.693 639.702 506.577 640.774 506.577Z" fill="white"/>
<path opacity="0.2" d="M739.001 488C744.524 488 749 483.522 749 477.999C749 472.477 744.524 468 739.001 468C733.478 468 729 472.477 729 477.999C729 483.522 733.478 488 739.001 488Z" fill="white"/>
<g opacity="0.4">
<path opacity="0.6" d="M733.167 484.58C729.211 480.556 729.211 474.075 733.167 470.052C733.826 469.381 734.485 468.933 735.365 468.486C734.045 468.933 732.947 469.827 731.85 470.723C727.893 474.746 727.893 481.227 731.85 485.251C735.145 488.603 740.199 489.274 744.155 486.815C740.418 488.381 736.242 487.71 733.167 484.58Z" fill="url(#paint16_linear_414_108)"/>
</g>
<path opacity="0.3" d="M742.501 475C743.882 475 745 473.88 745 472.499C745 471.118 743.882 470 742.501 470C741.12 470 740 471.118 740 472.499C740 473.88 741.12 475 742.501 475Z" fill="white"/>
<path d="M465 572.75C552.675 572.75 623.75 501.675 623.75 414C623.75 326.325 552.675 255.25 465 255.25C377.325 255.25 306.25 326.325 306.25 414C306.25 501.675 377.325 572.75 465 572.75Z" fill="#2B303C" stroke="#6151C8" stroke-width="0.5"/>
<mask id="mask1_414_108" style="mask-type:luminance" maskUnits="userSpaceOnUse" x="316" y="265" width="298" height="298">
<path d="M613.4 265.6H316.6V562.4H613.4V265.6Z" fill="white"/>
</mask>
<g mask="url(#mask1_414_108)">
<path fill-rule="evenodd" clip-rule="evenodd" d="M465 265.885C546.802 265.885 613.116 332.198 613.116 414C613.116 495.802 546.802 562.116 465 562.116C383.198 562.116 316.885 495.802 316.885 414C316.885 332.198 383.198 265.885 465 265.885Z" fill="#2E3148"/>
<path fill-rule="evenodd" clip-rule="evenodd" d="M464.715 328.549C511.909 328.549 550.166 366.807 550.166 414C550.166 461.193 511.909 499.451 464.715 499.451C417.522 499.451 379.264 461.193 379.264 414C379.264 366.807 417.522 328.549 464.715 328.549Z" fill="#161931"/>
<path fill-rule="evenodd" clip-rule="evenodd" d="M467.327 291.219C466.15 290.136 465.543 290.116 465.441 290.116C465.339 290.116 464.731 290.136 463.555 291.219C462.347 292.331 460.903 294.249 459.348 297.208C456.243 303.114 453.271 312.041 450.71 323.56C445.608 346.504 442.402 378.483 442.402 414C442.402 449.518 445.608 481.496 450.71 504.44C453.271 515.959 456.243 524.886 459.348 530.793C460.903 533.752 462.347 535.67 463.555 536.781C464.731 537.864 465.339 537.884 465.441 537.884C465.543 537.884 466.15 537.864 467.327 536.781C468.534 535.67 469.978 533.752 471.534 530.793C474.638 524.886 477.61 515.959 480.172 504.44C485.273 481.496 488.479 449.518 488.479 414C488.479 378.483 485.273 346.504 480.172 323.56C477.61 312.041 474.638 303.114 471.534 297.208C469.978 294.249 468.534 292.331 467.327 291.219ZM494.276 414C494.276 342.379 481.366 284.319 465.441 284.319C449.515 284.319 436.605 342.379 436.605 414C436.605 485.621 449.515 543.681 465.441 543.681C481.366 543.681 494.276 485.621 494.276 414Z" fill="#6F7390"/>
<path fill-rule="evenodd" clip-rule="evenodd" d="M572.782 354.238C573.132 352.679 572.846 352.146 572.796 352.06C572.746 351.974 572.426 351.458 570.898 350.981C569.33 350.491 566.946 350.2 563.603 350.334C556.932 350.599 547.709 352.491 536.445 356.034C514.011 363.091 484.696 376.306 453.918 394.064C423.14 411.823 397.031 430.587 379.699 446.475C370.997 454.451 364.747 461.487 361.181 467.127C359.395 469.953 358.455 472.162 358.096 473.762C357.746 475.321 358.032 475.854 358.082 475.94C358.131 476.026 358.452 476.542 359.98 477.019C361.547 477.509 363.932 477.8 367.275 477.667C373.946 477.4 383.169 475.509 394.432 471.966C416.867 464.909 446.181 451.694 476.96 433.936C507.738 416.177 533.847 397.413 551.179 381.525C559.881 373.549 566.131 366.513 569.697 360.873C571.483 358.047 572.423 355.838 572.782 354.238ZM353.062 478.84C361.025 492.623 417.793 474.767 479.857 438.957C541.921 403.147 585.778 362.943 577.816 349.16C569.853 335.377 513.085 353.233 451.021 389.043C388.957 424.853 345.099 465.057 353.062 478.84Z" fill="#6F7390"/>
<path fill-rule="evenodd" clip-rule="evenodd" d="M577.816 478.84C585.778 465.057 541.921 424.853 479.857 389.043C417.793 353.233 361.025 335.377 353.062 349.16C345.099 362.943 388.957 403.147 451.021 438.957C513.085 474.767 569.853 492.623 577.816 478.84ZM358.082 352.06C358.131 351.973 358.452 351.458 359.98 350.981C361.547 350.491 363.932 350.2 367.275 350.334C373.946 350.599 383.169 352.491 394.432 356.034C416.867 363.091 446.181 376.306 476.96 394.064C507.738 411.823 533.847 430.587 551.179 446.475C559.881 454.451 566.131 461.487 569.697 467.127C571.483 469.953 572.423 472.162 572.782 473.762C573.132 475.321 572.846 475.854 572.796 475.94C572.746 476.026 572.426 476.542 570.898 477.019C569.33 477.509 566.946 477.8 563.603 477.667C556.932 477.4 547.709 475.509 536.445 471.966C514.011 464.909 484.696 451.694 453.918 433.936C423.14 416.177 397.031 397.413 379.699 381.525C370.997 373.549 364.747 366.513 361.181 360.873C359.395 358.047 358.455 355.838 358.096 354.238C357.746 352.68 358.032 352.146 358.082 352.06Z" fill="#6F7390"/>
<path fill-rule="evenodd" clip-rule="evenodd" d="M382.553 377.684C387.589 377.684 391.672 381.768 391.672 386.807C391.672 391.846 387.589 395.931 382.553 395.931C377.517 395.931 373.434 391.846 373.434 386.807C373.434 381.768 377.517 377.684 382.553 377.684Z" fill="#B7B9C8"/>
<path fill-rule="evenodd" clip-rule="evenodd" d="M527.486 346.44C532.525 346.44 536.61 350.525 536.61 355.564C536.61 360.603 532.525 364.688 527.486 364.688C522.447 364.688 518.363 360.603 518.363 355.564C518.363 350.525 522.447 346.44 527.486 346.44Z" fill="#B7B9C8"/>
<path fill-rule="evenodd" clip-rule="evenodd" d="M447.064 489.642C452.103 489.642 456.188 493.725 456.188 498.761C456.188 503.798 452.103 507.881 447.064 507.881C442.025 507.881 437.94 503.798 437.94 498.761C437.94 493.725 442.025 489.642 447.064 489.642Z" fill="#B7B9C8"/>
<path fill-rule="evenodd" clip-rule="evenodd" d="M464.933 398.486C473.464 398.486 480.379 405.402 480.379 413.933C480.379 422.464 473.464 429.379 464.933 429.379C456.402 429.379 449.486 422.464 449.486 413.933C449.486 405.402 456.402 398.486 464.933 398.486Z" fill="#B7B9C8"/>
</g>
<defs>
<linearGradient id="paint0_linear_414_108" x1="1170.5" y1="255" x2="1341" y2="563.5" gradientUnits="userSpaceOnUse">
<stop stop-color="#745EFF"/>
<stop offset="1" stop-color="#41DDCA"/>
</linearGradient>
<linearGradient id="paint1_linear_414_108" x1="1149.5" y1="286.5" x2="1365.18" y2="542.082" gradientUnits="userSpaceOnUse">
<stop stop-color="#7761FF"/>
<stop offset="1" stop-color="#40DBC8"/>
</linearGradient>
<radialGradient id="paint2_radial_414_108" cx="0" cy="0" r="1" gradientUnits="userSpaceOnUse" gradientTransform="translate(819.495 293.542) scale(98.5265 100.023)">
<stop stop-color="#FFEAFF" stop-opacity="0.6"/>
<stop offset="0.6807" stop-color="#A087C9"/>
<stop offset="1" stop-color="#10002F"/>
</radialGradient>
<radialGradient id="paint3_radial_414_108" cx="0" cy="0" r="1" gradientUnits="userSpaceOnUse" gradientTransform="translate(793.407 400.801) scale(275.426 297.69)">
<stop stop-color="#FFEAFF" stop-opacity="0.6"/>
<stop offset="0.6807" stop-color="#A087C9"/>
<stop offset="1" stop-color="#10002F"/>
</radialGradient>
<linearGradient id="paint4_linear_414_108" x1="663.269" y1="546.228" x2="703.868" y2="299.773" gradientUnits="userSpaceOnUse">
<stop stop-color="#81FFFF"/>
<stop offset="0.6202" stop-color="white" stop-opacity="0"/>
</linearGradient>
<linearGradient id="paint5_linear_414_108" x1="770.035" y1="337.952" x2="666.868" y2="431.088" gradientUnits="userSpaceOnUse">
<stop offset="0.2888" stop-color="white"/>
<stop offset="0.7796" stop-color="white" stop-opacity="0"/>
</linearGradient>
<linearGradient id="paint6_linear_414_108" x1="566.1" y1="480.929" x2="799.943" y2="480.929" gradientUnits="userSpaceOnUse">
<stop stop-color="#0002E9"/>
<stop offset="0.9952" stop-color="#FF00C7"/>
</linearGradient>
<linearGradient id="paint7_linear_414_108" x1="810.739" y1="431.95" x2="681.641" y2="551.889" gradientUnits="userSpaceOnUse">
<stop offset="0.2888" stop-color="white"/>
<stop offset="0.7796" stop-color="white" stop-opacity="0"/>
</linearGradient>
<linearGradient id="paint8_linear_414_108" x1="564.721" y1="489.42" x2="675.106" y2="489.42" gradientUnits="userSpaceOnUse">
<stop stop-color="#000292"/>
<stop offset="0.9952" stop-color="#7D00C7"/>
</linearGradient>
<linearGradient id="paint9_linear_414_108" x1="566.256" y1="432.572" x2="800.006" y2="432.572" gradientUnits="userSpaceOnUse">
<stop stop-color="#000292"/>
<stop offset="0.9952" stop-color="#BE00C7"/>
</linearGradient>
<linearGradient id="paint10_linear_414_108" x1="795.713" y1="305.348" x2="778.539" y2="332.78" gradientUnits="userSpaceOnUse">
<stop offset="0.2888" stop-color="white"/>
<stop offset="0.7796" stop-color="white" stop-opacity="0"/>
</linearGradient>
<linearGradient id="paint11_linear_414_108" x1="655.287" y1="515.098" x2="663.505" y2="515.098" gradientUnits="userSpaceOnUse">
<stop offset="0.2888" stop-color="white"/>
<stop offset="0.7796" stop-color="white" stop-opacity="0"/>
</linearGradient>
<linearGradient id="paint12_linear_414_108" x1="683.627" y1="512.278" x2="691.844" y2="512.278" gradientUnits="userSpaceOnUse">
<stop offset="0.2888" stop-color="white"/>
<stop offset="0.7796" stop-color="white" stop-opacity="0"/>
</linearGradient>
<linearGradient id="paint13_linear_414_108" x1="670.962" y1="526.418" x2="677.132" y2="526.418" gradientUnits="userSpaceOnUse">
<stop offset="0.2888" stop-color="white"/>
<stop offset="0.7796" stop-color="white" stop-opacity="0"/>
</linearGradient>
<linearGradient id="paint14_linear_414_108" x1="714.804" y1="519.308" x2="721.783" y2="519.308" gradientUnits="userSpaceOnUse">
<stop offset="0.2888" stop-color="white"/>
<stop offset="0.7796" stop-color="white" stop-opacity="0"/>
</linearGradient>
<linearGradient id="paint15_linear_414_108" x1="628.743" y1="509.578" x2="642.164" y2="509.578" gradientUnits="userSpaceOnUse">
<stop offset="0.2888" stop-color="white"/>
<stop offset="0.7796" stop-color="white" stop-opacity="0"/>
</linearGradient>
<linearGradient id="paint16_linear_414_108" x1="728.866" y1="478.352" x2="744.047" y2="478.352" gradientUnits="userSpaceOnUse">
<stop offset="0.2888" stop-color="white"/>
<stop offset="0.7796" stop-color="white" stop-opacity="0"/>
</linearGradient>
</defs>
</svg>
