<svg width="48" height="49" viewBox="0 0 48 49" fill="none" xmlns="http://www.w3.org/2000/svg">
<path d="M24 24.5L14.3318 21.9455C13.7097 24.2999 13.9681 26.8002 15.0585 28.9776C16.1488 31.1549 17.9962 32.8596 20.2539 33.7718L24 24.5ZM24 24.5L24.1047 14.5005C21.8856 14.4773 19.7217 15.1929 17.954 16.5347C16.1863 17.8765 14.9151 19.7682 14.3408 21.9118L24 24.5ZM34 24.5C34 30.0228 29.5229 34.5 24 34.5C18.4772 34.5 14 30.0228 14 24.5C14 18.9772 18.4772 14.5 24 14.5C29.5229 14.5 34 18.9772 34 24.5Z" stroke="white" stroke-width="2" stroke-linecap="round" stroke-linejoin="round"/>
</svg>
