<svg width="48" height="48" viewBox="0 0 48 48" fill="none" xmlns="http://www.w3.org/2000/svg">
<path d="M24 34C29.5228 34 34 29.5228 34 24C34 18.4772 29.5228 14 24 14C18.4772 14 14 18.4772 14 24C14 29.5228 18.4772 34 24 34Z" stroke="white" stroke-width="2" stroke-linecap="round" stroke-linejoin="round"/>
<path d="M25.7316 25.1947C25.661 24.9831 25.6257 24.8772 25.6276 24.7907C25.6295 24.6996 25.6417 24.6519 25.6836 24.5711C25.7235 24.4942 25.83 24.395 26.0432 24.1967C26.6318 23.649 27 22.8675 27 22C27 20.3431 25.6569 19 24 19C22.3431 19 21 20.3431 21 22C21 22.8675 21.3682 23.649 21.9568 24.1967C22.17 24.395 22.2765 24.4942 22.3164 24.5711C22.3583 24.6519 22.3705 24.6996 22.3724 24.7907C22.3743 24.8772 22.339 24.9831 22.2684 25.1947L21.351 27.947C21.2325 28.3025 21.1732 28.4803 21.2088 28.6218C21.2399 28.7456 21.3172 28.8529 21.4248 28.9216C21.5478 29 21.7352 29 22.1099 29H25.8901C26.2648 29 26.4522 29 26.5752 28.9216C26.6828 28.8529 26.7601 28.7456 26.7912 28.6218C26.8268 28.4803 26.7675 28.3025 26.649 27.947L25.7316 25.1947Z" stroke="white" stroke-width="2" stroke-linecap="round" stroke-linejoin="round"/>
</svg>
