<svg width="48" height="48" viewBox="0 0 48 48" fill="none" xmlns="http://www.w3.org/2000/svg">
<path d="M25 17C25 18.1046 22.5376 19 19.5 19C16.4624 19 14 18.1046 14 17M25 17C25 15.8954 22.5376 15 19.5 15C16.4624 15 14 15.8954 14 17M25 17V21.4571C23.7785 21.824 23 22.3789 23 23M14 17V29C14 30.1046 16.4624 31 19.5 31C20.8296 31 22.0491 30.8284 23 30.5429V23M14 21C14 22.1046 16.4624 23 19.5 23C20.8296 23 22.0491 22.8284 23 22.5429M14 25C14 26.1046 16.4624 27 19.5 27C20.8296 27 22.0491 26.8284 23 26.5429M34 23C34 24.1046 31.5376 25 28.5 25C25.4624 25 23 24.1046 23 23M34 23C34 21.8954 31.5376 21 28.5 21C25.4624 21 23 21.8954 23 23M34 23V31C34 32.1046 31.5376 33 28.5 33C25.4624 33 23 32.1046 23 31V23M34 27C34 28.1046 31.5376 29 28.5 29C25.4624 29 23 28.1046 23 27" stroke="white" stroke-width="2" stroke-linecap="round" stroke-linejoin="round"/>
</svg>
