<svg width="534" height="584" viewBox="0 0 534 584" fill="none" xmlns="http://www.w3.org/2000/svg">
<path d="M532.99 369.037L477.11 214.913C474.65 208.771 469.12 204.475 462.37 204.475H391.143V15.351C391.143 6.755 384.388 0 375.792 0H158.422C149.826 0 143.071 6.755 143.071 15.351V204.475H71.846C65.091 204.475 59.566 208.775 57.108 214.913L1.229 369.037C0.617004 370.879 0 372.721 0 374.562V567.985C0 576.581 6.75501 583.336 15.351 583.336H517.02C525.62 583.336 532.37 576.581 532.37 567.985L532.38 374.562C533.6 372.721 533.6 370.875 532.99 369.033V369.037ZM359.826 31.315V281.844H174.386V31.315H359.826ZM82.894 235.791H143.069V281.844H125.264C116.668 281.844 109.913 288.598 109.913 297.194C109.913 305.791 116.668 312.545 125.264 312.545H408.95C417.55 312.545 424.3 305.791 424.3 297.194C424.3 288.598 417.55 281.844 408.95 281.844H391.145V235.791H451.32L495.53 358.598H38.072L82.894 235.791ZM31.929 552.021V389.914H502.9V552.021H31.929Z" fill="#4FCABB"/>
<path d="M267.079 75L333.763 113.5V190.5L267.079 229L200.395 190.5V113.5L267.079 75Z" fill="black" stroke="url(#paint0_linear_413_107)" stroke-width="8"/>
<mask id="mask0_413_107" style="mask-type:alpha" maskUnits="userSpaceOnUse" x="200" y="75" width="134" height="154">
<path d="M267 75L333.684 113.5V190.5L267 229L200.316 190.5V113.5L267 75Z" fill="white"/>
</mask>
<g mask="url(#mask0_413_107)">
<path d="M198.089 127.745L223.499 144.685M198.089 127.745C198.089 127.745 182.885 137.563 181.727 139.295C180.568 141.028 181.153 158.93 181.727 161.048C182.3 163.165 193.465 179.143 194.624 180.105M198.089 127.745C198.089 127.745 198.089 122.933 198.089 121.585C198.089 120.238 206.559 113.885 206.559 113.885M223.499 144.685C223.499 144.685 221.852 159.508 221.574 162.01M223.499 144.685C224.577 143.607 233.83 138.59 238.322 136.215M194.624 180.105C205.149 173.039 219.068 162.973 221.574 162.01M194.624 180.105C194.624 181.684 194.624 182.8 194.624 184.148C194.624 185.495 209.254 197.43 209.254 197.43M206.559 113.885L207.907 97.715C207.907 97.715 214.259 87.898 223.499 86.743M206.559 113.885L232.547 106.955M221.574 162.01C223.499 164.128 249.679 181.453 249.679 181.453M238.322 136.215L243.519 123.318M238.322 136.215C238.322 136.215 251.215 148.92 267.197 159.508M249.679 181.453C249.679 181.453 257.568 174.138 267.197 159.508M249.679 181.453L209.254 197.43M249.679 181.453L253.529 194.543M209.254 197.43L210.113 203.013C213.24 206.228 218.168 211.305 222.055 215.333C225.15 218.54 227.585 221.083 227.927 221.493M223.499 86.743L232.547 106.955M223.499 86.743L238.322 74.615M232.547 106.955L243.519 114.848M243.519 114.848C243.134 117.094 242.595 121.932 243.519 123.318M243.519 114.848C245.059 114.078 250.834 109.265 253.529 106.955M238.322 74.615C247.173 81.738 249.679 84.24 258.149 94.635M238.322 74.615C239.092 74.615 256.224 68.648 259.689 68.648C263.154 68.648 274.127 79.62 274.127 79.62M243.519 123.318L268.737 130.44M267.197 159.508C269.695 158.738 274.127 158.353 274.127 158.353M268.737 130.44L281.249 143.53M268.737 130.44V113.885M281.249 143.53L276.629 156.043M281.249 143.53L295.879 133.135M268.737 113.885L253.529 106.955M268.737 113.885L290.104 108.88M276.629 156.043L274.127 158.353M276.629 156.043C276.629 156.043 290.104 163.743 304.349 169.133M295.879 133.135L296.649 112.73M295.879 133.135C295.879 133.135 308.55 138.884 316.669 142.568M274.127 158.353C274.127 158.353 278.935 163.55 290.104 187.998M304.349 169.133C307.582 169.133 312.627 169.133 312.627 169.133M304.349 169.133C298.786 176.5 298.378 175.293 290.104 187.998M290.104 187.998C290.104 191.682 290.104 197.43 290.104 197.43M253.529 194.543C253.529 194.543 265.845 203.013 274.127 208.21M253.529 194.543C245.316 203.911 228.697 222.417 227.927 221.493M227.927 221.493C227.927 221.493 227.927 223.418 227.927 226.305C227.927 229.193 246.796 239.78 249.679 239.78C252.563 239.78 272.394 227.653 273.164 226.305C273.934 224.958 275.474 220.338 275.474 220.338M253.529 106.955L258.149 94.635M258.149 94.635L272.394 86.743M272.394 86.743L274.127 79.62M272.394 86.743L290.104 108.88M274.127 79.62L282.019 74.615M282.019 74.615C282.019 74.615 296.649 89.823 310.124 100.218M282.019 74.615L293.377 72.305L307.814 75.963L317.824 87.898L319.749 97.715M290.104 108.88L296.649 112.153C296.649 112.153 304.862 104.879 310.124 100.218M310.124 100.218C313.883 98.79 319.749 96.56 319.749 96.56L331.107 106.955M331.107 106.955C331.107 106.955 326.29 127.745 316.669 142.568M331.107 106.955C335.419 112.345 340.475 123.061 342.464 127.745L335.919 142.568M316.669 142.568C318.398 144.523 321.097 147.573 321.097 147.573M321.097 147.573L335.919 142.568M321.097 147.573V162.01M335.919 142.568L346.699 156.043L345.544 181.453M345.544 181.453L321.097 162.01M345.544 181.453V190.5L335.919 198.393L321.097 203.013M321.097 162.01L312.627 169.133M312.627 169.133C312.627 169.133 313.2 183.378 310.124 197.43M310.124 197.43C307.268 198.333 305.666 198.838 302.809 199.74M310.124 197.43C314.409 199.611 321.097 203.013 321.097 203.013M290.104 197.43C290.104 197.43 297.848 198.838 302.809 199.74M290.104 197.43C290.104 197.43 280.09 203.783 274.127 208.21M302.809 199.74C303.383 212.638 302.49 214.105 302.039 223.803M321.097 203.013C321.097 203.013 309.632 215.383 302.039 223.803M302.039 223.803C299.729 224.38 275.474 220.338 275.474 220.338M274.127 208.21C274.893 212.638 275.474 220.338 275.474 220.338" stroke="url(#paint1_linear_413_107)" stroke-width="8"/>
</g>
<defs>
<linearGradient id="paint0_linear_413_107" x1="215.41" y1="75" x2="304.73" y2="234.005" gradientUnits="userSpaceOnUse">
<stop stop-color="#8C79FF"/>
<stop offset="1" stop-color="#4FCABB"/>
</linearGradient>
<linearGradient id="paint1_linear_413_107" x1="215.025" y1="74.615" x2="304.345" y2="234.775" gradientUnits="userSpaceOnUse">
<stop stop-color="#8C79FF"/>
<stop offset="1" stop-color="#4FCABB"/>
</linearGradient>
</defs>
</svg>
