<svg width="82" height="145" viewBox="0 0 82 145" fill="none" xmlns="http://www.w3.org/2000/svg">
<g filter="url(#filter0_d_1_275)">
<path d="M16 11.0625C16 13.7894 13.3137 16 10 16C6.68629 16 4 13.7894 4 11.0625C4 8.33559 7.23077 3.375 10 0C12.2308 3.8125 16 8.33559 16 11.0625Z" fill="black"/>
<path d="M14.75 11.0625C14.75 12.8822 12.8623 14.75 10 14.75C7.13771 14.75 5.25 12.8822 5.25 11.0625C5.25 10.6011 5.39302 9.9446 5.71497 9.10636C6.03066 8.2844 6.48843 7.36379 7.04466 6.39826C7.86146 4.98043 8.8645 3.51064 9.87481 2.17769C10.1894 2.66761 10.5142 3.15917 10.8378 3.64577C10.9539 3.82025 11.0697 3.99395 11.185 4.16686C11.7395 4.99828 12.2816 5.81125 12.7774 6.60223C13.3768 7.55842 13.8821 8.44166 14.2353 9.23051C14.5965 10.0372 14.75 10.6409 14.75 11.0625Z" stroke="white" stroke-width="2.5"/>
</g>
<g filter="url(#filter1_d_1_275)">
<path d="M76 39.0625C76 41.7894 73.3137 44 70 44C66.6863 44 64 41.7894 64 39.0625C64 36.3356 67.2308 31.375 70 28C72.2308 31.8125 76 36.3356 76 39.0625Z" fill="black"/>
<path d="M74.75 39.0625C74.75 40.8822 72.8623 42.75 70 42.75C67.1377 42.75 65.25 40.8822 65.25 39.0625C65.25 38.6011 65.393 37.9446 65.715 37.1064C66.0307 36.2844 66.4884 35.3638 67.0447 34.3983C67.8615 32.9804 68.8645 31.5106 69.8748 30.1777C70.1894 30.6676 70.5142 31.1592 70.8378 31.6458C70.9539 31.8202 71.0697 31.9939 71.185 32.1669C71.7395 32.9983 72.2816 33.8112 72.7774 34.6022C73.3768 35.5584 73.8821 36.4417 74.2353 37.2305C74.5965 38.0372 74.75 38.6409 74.75 39.0625Z" stroke="white" stroke-width="2.5"/>
</g>
<g filter="url(#filter2_d_1_275)">
<path d="M37 55.0625C37 57.7894 34.3137 60 31 60C27.6863 60 25 57.7894 25 55.0625C25 52.3356 28.2308 47.375 31 44C33.2308 47.8125 37 52.3356 37 55.0625Z" fill="black"/>
<path d="M35.75 55.0625C35.75 56.8822 33.8623 58.75 31 58.75C28.1377 58.75 26.25 56.8822 26.25 55.0625C26.25 54.6011 26.393 53.9446 26.715 53.1064C27.0307 52.2844 27.4884 51.3638 28.0447 50.3983C28.8615 48.9804 29.8645 47.5106 30.8748 46.1777C31.1894 46.6676 31.5142 47.1592 31.8378 47.6458C31.9539 47.8202 32.0697 47.9939 32.185 48.1669C32.7395 48.9983 33.2816 49.8112 33.7774 50.6022C34.3768 51.5584 34.8821 52.4417 35.2353 53.2305C35.5965 54.0372 35.75 54.6409 35.75 55.0625Z" stroke="white" stroke-width="2.5"/>
</g>
<g filter="url(#filter3_d_1_275)">
<path d="M54 93.0625C54 95.7894 51.3137 98 48 98C44.6863 98 42 95.7894 42 93.0625C42 90.3356 45.2308 85.375 48 82C50.2308 85.8125 54 90.3356 54 93.0625Z" fill="black"/>
<path d="M52.75 93.0625C52.75 94.8822 50.8623 96.75 48 96.75C45.1377 96.75 43.25 94.8822 43.25 93.0625C43.25 92.6011 43.393 91.9446 43.715 91.1064C44.0307 90.2844 44.4884 89.3638 45.0447 88.3983C45.8615 86.9804 46.8645 85.5106 47.8748 84.1777C48.1894 84.6676 48.5142 85.1592 48.8378 85.6458C48.9539 85.8202 49.0697 85.9939 49.185 86.1669C49.7395 86.9983 50.2816 87.8112 50.7774 88.6022C51.3768 89.5584 51.8821 90.4417 52.2353 91.2305C52.5965 92.0372 52.75 92.6409 52.75 93.0625Z" stroke="white" stroke-width="2.5"/>
</g>
<path d="M80.75 124.062C80.75 125.882 78.8623 127.75 76 127.75C73.1377 127.75 71.25 125.882 71.25 124.062C71.25 123.601 71.393 122.945 71.715 122.106C72.0307 121.284 72.4884 120.364 73.0447 119.398C73.8615 117.98 74.8645 116.511 75.8748 115.178C76.1894 115.668 76.5142 116.159 76.8378 116.646C76.9539 116.82 77.0697 116.994 77.185 117.167C77.7395 117.998 78.2816 118.811 78.7774 119.602C79.3768 120.558 79.8821 121.442 80.2353 122.231C80.5965 123.037 80.75 123.641 80.75 124.062Z" fill="black" stroke="white" stroke-width="2.5"/>
<path d="M26.75 140.062C26.75 141.882 24.8623 143.75 22 143.75C19.1377 143.75 17.25 141.882 17.25 140.062C17.25 139.601 17.393 138.945 17.715 138.106C18.0307 137.284 18.4884 136.364 19.0447 135.398C19.8615 133.98 20.8645 132.511 21.8748 131.178C22.1894 131.668 22.5142 132.159 22.8378 132.646C22.9539 132.82 23.0697 132.994 23.185 133.167C23.7395 133.998 24.2816 134.811 24.7774 135.602C25.3768 136.558 25.8821 137.442 26.2353 138.231C26.5965 139.037 26.75 139.641 26.75 140.062Z" fill="black" stroke="white" stroke-width="2.5"/>
<defs>
<filter id="filter0_d_1_275" x="0" y="0" width="20" height="24" filterUnits="userSpaceOnUse" color-interpolation-filters="sRGB">
<feFlood flood-opacity="0" result="BackgroundImageFix"/>
<feColorMatrix in="SourceAlpha" type="matrix" values="0 0 0 0 0 0 0 0 0 0 0 0 0 0 0 0 0 0 127 0" result="hardAlpha"/>
<feOffset dy="4"/>
<feGaussianBlur stdDeviation="2"/>
<feComposite in2="hardAlpha" operator="out"/>
<feColorMatrix type="matrix" values="0 0 0 0 0 0 0 0 0 0 0 0 0 0 0 0 0 0 0.25 0"/>
<feBlend mode="normal" in2="BackgroundImageFix" result="effect1_dropShadow_1_275"/>
<feBlend mode="normal" in="SourceGraphic" in2="effect1_dropShadow_1_275" result="shape"/>
</filter>
<filter id="filter1_d_1_275" x="60" y="28" width="20" height="24" filterUnits="userSpaceOnUse" color-interpolation-filters="sRGB">
<feFlood flood-opacity="0" result="BackgroundImageFix"/>
<feColorMatrix in="SourceAlpha" type="matrix" values="0 0 0 0 0 0 0 0 0 0 0 0 0 0 0 0 0 0 127 0" result="hardAlpha"/>
<feOffset dy="4"/>
<feGaussianBlur stdDeviation="2"/>
<feComposite in2="hardAlpha" operator="out"/>
<feColorMatrix type="matrix" values="0 0 0 0 0 0 0 0 0 0 0 0 0 0 0 0 0 0 0.25 0"/>
<feBlend mode="normal" in2="BackgroundImageFix" result="effect1_dropShadow_1_275"/>
<feBlend mode="normal" in="SourceGraphic" in2="effect1_dropShadow_1_275" result="shape"/>
</filter>
<filter id="filter2_d_1_275" x="21" y="44" width="20" height="24" filterUnits="userSpaceOnUse" color-interpolation-filters="sRGB">
<feFlood flood-opacity="0" result="BackgroundImageFix"/>
<feColorMatrix in="SourceAlpha" type="matrix" values="0 0 0 0 0 0 0 0 0 0 0 0 0 0 0 0 0 0 127 0" result="hardAlpha"/>
<feOffset dy="4"/>
<feGaussianBlur stdDeviation="2"/>
<feComposite in2="hardAlpha" operator="out"/>
<feColorMatrix type="matrix" values="0 0 0 0 0 0 0 0 0 0 0 0 0 0 0 0 0 0 0.25 0"/>
<feBlend mode="normal" in2="BackgroundImageFix" result="effect1_dropShadow_1_275"/>
<feBlend mode="normal" in="SourceGraphic" in2="effect1_dropShadow_1_275" result="shape"/>
</filter>
<filter id="filter3_d_1_275" x="38" y="82" width="20" height="24" filterUnits="userSpaceOnUse" color-interpolation-filters="sRGB">
<feFlood flood-opacity="0" result="BackgroundImageFix"/>
<feColorMatrix in="SourceAlpha" type="matrix" values="0 0 0 0 0 0 0 0 0 0 0 0 0 0 0 0 0 0 127 0" result="hardAlpha"/>
<feOffset dy="4"/>
<feGaussianBlur stdDeviation="2"/>
<feComposite in2="hardAlpha" operator="out"/>
<feColorMatrix type="matrix" values="0 0 0 0 0 0 0 0 0 0 0 0 0 0 0 0 0 0 0.25 0"/>
<feBlend mode="normal" in2="BackgroundImageFix" result="effect1_dropShadow_1_275"/>
<feBlend mode="normal" in="SourceGraphic" in2="effect1_dropShadow_1_275" result="shape"/>
</filter>
</defs>
</svg>
